<?xml version="1.0" encoding="utf-8"?>
<!-- Generator: Adobe Illustrator 22.0.1, SVG Export Plug-In . SVG Version: 6.00 Build 0)  -->
<svg version="1.1" id="Layer_1" xmlns="http://www.w3.org/2000/svg" xmlns:xlink="http://www.w3.org/1999/xlink" x="0px" y="0px"
	 viewBox="0 0 512 512" style="enable-background:new 0 0 512 512;" xml:space="preserve">
<style type="text/css">
	.st0{fill:#0A0A0A;}
	.st1{fill:#FFFFFF;}
</style>
<rect class="st0" width="512" height="512"/>
<g>
	<path class="st1" d="M369.5,170H265.9V97h-19.9v73H142.5v19.9h58.6c-19,15.8-31.1,39.5-31.1,66.1c0,26.5,12,50.3,31.1,66.1h-58.6
		V342h103.6h19.9h103.6v-19.9h-58.6c19-15.8,31.1-39.5,31.1-66.1c0-26.5-12-50.3-31.1-66.1h58.6V170z M322.1,256
		c0,33-24.3,60.4-56.1,65.2V204.9h-19.9v116.3c-31.7-4.8-56.1-32.2-56.1-65.2c0-36.4,29.6-66.1,66.1-66.1S322.1,219.6,322.1,256z"/>
	<rect x="246.1" y="356.9" class="st1" width="19.9" height="58.1"/>
</g>
</svg>
