<svg id="Layer_1" data-name="Layer 1" xmlns="http://www.w3.org/2000/svg" viewBox="0 0 128 58"><defs><style>.cls-1{fill:none;stroke:#fff;stroke-miterlimit:10;}</style></defs><path class="cls-1" d="M128,37.44H108.94c-3.73,0-6.49,6.08-10.22,6.08S93.9,19.21,86,20.11c-8.34.95-7.28,23.27-15.67,23.27-7.5,0-8.77-41.61-17.24-41.29C46,2.35,44.46,39.32,40.73,39.32s-2.59-12.5-6.32-12.5-3.72,15-7.45,15-3.73-4.4-7.46-4.4H0"/><path class="cls-1" d="M128,37.44H108.94c-3.73,0-3.73-5-7.45-5S97.76,15,94,15,90,54.34,86.24,54.34s-3.38-32.5-7.11-32.5S75.4,35.6,71.68,35.6s-3.06-22.51-7.45-22.51c-4.91,0-5.9,19.11-9.63,19.11s-3.26,22.14-7,22.14S41.05,17.23,37.33,17.23s-6.64,14-10.37,14-3.73,6.21-7.46,6.21H0"/></svg>