<?xml version="1.0" encoding="UTF-8"?><svg id="Layer_1" xmlns="http://www.w3.org/2000/svg" viewBox="0 0 128 128"><defs><style>.cls-1{fill:#fdcb6e;}.cls-2{fill:#e17055;}</style></defs><path class="cls-1" d="m28.47,13.47h76.16c-1.41-5.43-6.36-9.47-12.21-9.47H16.63c-6.95,0-12.63,5.68-12.63,12.63v75.79c0,5.86,4.04,10.8,9.47,12.21V28.47c0-8.25,6.75-15,15-15Z"/><path class="cls-2" d="m111.37,22.95H35.58c-6.95,0-12.63,5.68-12.63,12.63v75.79c0,6.95,5.68,12.63,12.63,12.63h75.79c6.95,0,12.63-5.68,12.63-12.63V35.58c0-6.95-5.68-12.63-12.63-12.63Z"/></svg>