<?xml version="1.0" encoding="UTF-8"?>
<svg id="Layer_1" xmlns="http://www.w3.org/2000/svg" viewBox="0 0 256 256">
  <defs>
    <style>
      .cls-1, .cls-2 {
        fill: #be1e2d;
      }

      .cls-3 {
        fill: #fff;
      }

      .cls-2 {
        fill-rule: evenodd;
      }
    </style>
  </defs>
  <path class="cls-3" d="M113.46,181.27c2.57,4.01,8.14,6.8,14.61,6.8s12.03-2.78,14.6-6.79c-6-1.33-11.12-4.08-14.63-7.69-3.49,3.6-8.61,6.34-14.59,7.68Z"/>
  <path class="cls-3" d="M150.18,116.78c-5.92,2.58-13.54,4.13-21.85,4.13h-.99c-8.31,0-15.93-1.55-21.85-4.13-2.11,5.21-6.51,10.48-12.55,14.4-3.16,2.05-6.43,3.51-9.6,4.39,4.46,1.78,8.96,4.78,12.73,8.76,5.44,5.73,8.08,12.15,7.66,17.24-.26,3.12-1.67,5.74-4.3,7.4-1.46.93-3.19,1.47-5.09,1.68,3.81,3.44,9.73,5.66,16.38,5.66,7.09,0,13.35-2.52,17.1-6.35,3.76,3.83,10.01,6.35,17.1,6.35,6.66,0,12.57-2.22,16.38-5.66-1.9-.21-3.63-.75-5.09-1.68-2.63-1.66-4.03-4.28-4.3-7.4-.42-5.09,2.23-11.51,7.66-17.24,3.77-3.98,8.28-6.98,12.73-8.76-3.17-.88-6.44-2.34-9.6-4.39-6.04-3.91-10.44-9.19-12.55-14.4Z"/>
  <path class="cls-3" d="M124.68,108.18c13.22,3.97,22.1,5.02,26.43,3.16,1.96-7.72,6.34-16.18,10.13-22.58l-7.46,5.09-4.69,3.19-.21.15-3.71,2.53-.02-3.81v-.85l-.07-17.71-12.05,13.89-.66.76-.7.81-3.64,4.2-.73-5.5-2.68-20.28-7.68,11.55-2.12,3.19-.47.71-2.11,3.18-1.7-4.15-.1-.24-2.15-5.24-3.43-8.36c-.36,7.42-1.36,16.9-3.98,24.42,2.58,3.94,10.58,7.94,23.8,11.91Z"/>
  <g>
    <path class="cls-1" d="M92.45,125.35c0-.29.13-.27.39-.48-.59-.08-1.12.42-1.16.58.23-.07.58-.27.77-.09Z"/>
    <path class="cls-1" d="M93.03,126.9c.2-.22.79-.04.87-.39-.25.1-1.06.15-.87.39Z"/>
    <path class="cls-1" d="M185.6,110.72c-.3-.1-.67-.82-.93-.53.3.1.67.82.93.53Z"/>
    <path class="cls-1" d="M96.31,122.27c.2.09.48.6.67.39-.25-.05-.47-.61-.67-.39Z"/>
    <path class="cls-1" d="M90.42,86.4c-.54-.55-1-.53-1.43-.26-.03.7.88,1.17,1.43.26Z"/>
    <path class="cls-1" d="M92.17,75.67c.14,1.08.28,2.14.31,3.17.02-1.04-.11-2.12-.31-3.17Z"/>
    <path class="cls-1" d="M88.21,118.02c.41.5.96.76,1.54.87-.23-.48-1.16-.51-1.54-.87Z"/>
    <path class="cls-1" d="M90.33,119.47c-.25.12.09.47-.1.48-.06,0-.12.02-.1.1.57-.39.73.75,1.16.48-.09-.03-.42-.26-.19-.29.6.36.99.94,1.54,1.35-.37-.79-1.25-1.06-1.54-1.93-.42-.05-.6.03-.77-.1.15,0,.07-.28,0-.1Z"/>
    <path class="cls-1" d="M92.07,127.28c-.03-.19.13-.19.2-.29-.19-.1-1.07.12-.97.1.22.09.47.17.77.19Z"/>
    <path class="cls-1" d="M96.21,123.33c.28-.89.99.54,1.25.29-.6-.56-1.24-1.07-1.83-1.64.01.24.18.3,0,.48.6.11.22.2.67.39-.06.2-.49.36-.1.48Z"/>
    <path class="cls-1" d="M95.36,84.78l.13.57c0-.18-.07-.38-.13-.57.03,0,.06,0,.09,0,.87-.59,1.01-1.31,1.39-2.21-.48-.56-1.14-1.26-1.86-1.57-.27-1.22-.52-2.53-.88-3.8-.14-.6.44-1.26-.19-2.04.12,1.88.3,3.81.63,5.72-2.25.03-2.44,4.35.81,3.9Z"/>
    <path class="cls-1" d="M81.31,148.19c-.58-.39-1.28-.66-1.93-.97.45.45,1.38.98,1.93.97Z"/>
    <path class="cls-1" d="M185.87,106.88c-.3-.62.88-.43.53-.66-.54.14-.85.02-1.32.4.38-.02.26.45.79.26Z"/>
    <path class="cls-1" d="M183.08,117.74c.24-.34.73-.37,1.06-.62-.4,0-.33-.47-.4-.75h-.4c.42.55-.37.46-.53.88.52.04-.1.36.27.48Z"/>
    <path class="cls-1" d="M100.55,123.71c.37-.22.69.03.87-.29-.34.04-.93-.16-.87.29Z"/>
    <path class="cls-1" d="M81.53,128.96c-.67-.23-1.59-.77-2.26-.64.79.11,1.48.88,2.26.64Z"/>
    <path class="cls-1" d="M183.35,113.24c.38.41.96.63,1.19,1.19-.23.08-.55-.39-.66,0,.48.28.61.09,1.19.26-.41-.57-1.22-1.43-1.72-1.46Z"/>
    <path class="cls-1" d="M102.57,120.73c-.31.08-.3-.15-.48-.19-.1.13-.1.35-.19.48.37.04.6-.04.67-.29Z"/>
    <path class="cls-1" d="M100.93,121.69c.07.04.77.13.77-.19-.4.13-.55-.08-.77.19Z"/>
    <path class="cls-1" d="M105.56,115.9c.02-.4.56-.27.77-.48-.28-.1-.92-.1-1.16.29.26-.07.19.19.39.19Z"/>
    <path class="cls-1" d="M115.97,118.41c.08-.25.72.07.68-.29-.23.03-.91.11-.68.29Z"/>
    <path class="cls-1" d="M101.22,119.09c-.11.05-.22.1-.29.19.25,0,.46-.01.58-.15-.18-.19.54-.27.58-.54h-.68c.05.28-.67.13-.67.54.17.06.4-.32.48-.04Z"/>
    <path class="cls-1" d="M93.12,122.07c.22.17.59.7.77.58-.2-.19-.61-.68-.77-.58Z"/>
    <path class="cls-1" d="M83.89,164.71c.2.2,1.03.28,1.03-.15-.3.09-.96-.18-1.03.15Z"/>
    <path class="cls-1" d="M91.2,146.12c.17,0,.09.79.43.77,0-.15-.05-.12-.11-.21,1.13.52,2.22,1.13,3.44,1.56-1.73-1-4.85-2.54-7.2-3.41-1.32-.91-2.96-1.47-4.41-2.24-.16-.38.36-.06.32-.32-.13-.1-.8-.32-.75.1,2.42,1.45,5.35,1.55,7.63,3.75h.64Z"/>
    <path class="cls-1" d="M80.08,169.26c1.5-.05,2.37,2.1,3.53,1.03-1.34-.3-2.33-.6-2.94-1.32-.13.4-.54-.29-.59.29Z"/>
    <path class="cls-1" d="M81.53,141.85c.02-.16-.04-.4.11-.43.65.11,1.35.7,2.04.43.08.28.68.6.96.32-.16-.13-.44-.13-.53-.32.31-.02.74.09.75-.21-.36-.07-1,.14-1.18-.11.24-.15-.14-.26.11-.32.17.04.09.33.43.21.2-.21-.06-.2,0-.54-.55-.09-.82.11-1.08.32.09.23.41.24.43.53-.35-.04-.82-.31-.54-.64-.61-.06-.64-.02-1.29,0,.26-.14-.12-.4.11-.43.23.06.51.44.64,0-.57-.23-1.39.04-1.5-.43.14.02.78.02.43-.11-.71.07-1.6-.07-1.82.21-.02.31.66-.09.64.22-.42.14.11.3-.11.43-.64-.07-.64-.79-1.29-.86-.11.2.32.36,0,.43-.72-.61-1.88-1.35-2.9-1.29,1.4.34,2.53,1.36,3.65,1.94.41.21.96.17.64.53.97-.22,1.76,1.06,2.58.64-.25-.25-.83-.96-1.29-.54Z"/>
    <path class="cls-1" d="M79.16,141.74c.52.04-.13.04,0,.32.27-.13.84.05.86-.32-.33.29-.52-.37-.86,0Z"/>
    <path class="cls-1" d="M89.27,140.29c.34.05.55.15.77-.09-.23.06-.7-.12-.77.09Z"/>
    <path class="cls-1" d="M89.46,141.35c.2-.1.94-.14.67-.38-.12.23-.63.08-.67.38Z"/>
    <path class="cls-1" d="M89.37,141.64c.04-.1.11-.23,0-.1-.95-.07-.95.16,0,.1Z"/>
    <path class="cls-1" d="M86.04,139.6c.34.02.65,0,.75-.22-.27.2-.61-.2-.75.22Z"/>
    <path class="cls-1" d="M77.23,142.17c.02-.09.09-.13.22-.11.14,0,.1.19.21.21.58-.42-.91-.43-.43-.11Z"/>
    <path class="cls-1" d="M85.29,140.13c.4-.14.74.32.97,0-.22-.05-.8-.27-.97,0Z"/>
    <path class="cls-1" d="M80.24,135.19c.1.33.83.59.96.54-.28-.22-.63-.37-.96-.54Z"/>
    <path class="cls-1" d="M85.22,84.66c-.28.76-.85,1.56-.92,2.29.49.52.9.49,1.34.74.81-1.27.86-1.48,1.18-2.64-.6-.57-1.07-.27-1.6-.39Z"/>
    <path class="cls-1" d="M182.69,105.55c.51-.31.95.03,1.19-.4-.47.06-1.28-.21-1.19.4Z"/>
    <path class="cls-1" d="M88.43,84.36c-.11-.66-1.05-.98-1.47-.57.1.14.09.29-.09.48.6.63,1.13.7,1.56.09Z"/>
    <path class="cls-1" d="M83.79,129.82c.11.11.77.22.86,0-.25-.06-.78-.4-.86,0Z"/>
    <path class="cls-1" d="M82.92,137.45c-1.05-.35-2.22-1.14-3.33-1.08.88.52,2.29,1.08,3.33,1.08Z"/>
    <path class="cls-1" d="M87.92,116.96c-.02.73.65.76.96,1.16-.16-.26.15-.45-.19-.58-.01.12.02.28-.1.29-.03-.49-.41-.62-.67-.87Z"/>
    <path class="cls-1" d="M79.16,136.05c-.41-.02-.96-.47-1.29-.22.41.03,1.02.41,1.29.22Z"/>
    <path class="cls-1" d="M74.76,134.44c-.55.03-1.7-.4-2.25-.32.48.26,1.99.87,2.25.32Z"/>
    <path class="cls-1" d="M81.74,140.24c.52.01,1.01,0,1.29-.22-.51-.13-1.07-.07-1.29.22Z"/>
    <path class="cls-1" d="M77.45,131.86c-.52-.23-1.19-.89-1.72-.75.68.07,1.17.9,1.72.75Z"/>
    <path class="cls-1" d="M80.77,133.69c-.36-.21-.97-.33-.53-.75-.47-.11-1.05-.67-1.4-.54.5.5,1.13,1.44,1.93,1.29Z"/>
    <path class="cls-1" d="M90.52,122.94c-.19.23-.5-.14-.77.1-.04.43,1.18.14.77-.1Z"/>
    <path class="cls-1" d="M170.5,107.94c.32-.1.8-.38,1.06-.13.01-.4.18-.37.53-.66-.81-.1-1.53.58-1.59.8Z"/>
    <path class="cls-1" d="M169.97,101.18c-.12-.04-.58-.36-.27-.4.83.49,1.36,1.29,2.12,1.86-.51-1.08-1.72-1.46-2.12-2.65-.57-.07-.82.04-1.06-.13.21.01.09-.39,0-.13-.34.17.12.65-.13.66-.08,0-.16.02-.13.13.79-.54,1,1.03,1.59.66Z"/>
    <path class="cls-1" d="M171.03,110.45c-.04-.26.18-.26.27-.4-.23-.12-1.21.11-1.32.14.31.13.65.23,1.06.26Z"/>
    <path class="cls-1" d="M173.28,115.88c-.61.05-1.16.17-1.59.4.65,0,1.2-.13,1.59-.4Z"/>
    <path class="cls-1" d="M173.28,122.51c-.1-.36.26-.27.26-.53-.67-.05-.86.38-1.19.66.47-.05.48-.36.93-.13Z"/>
    <path class="cls-1" d="M173.54,109.39c-.35.14-1.46.21-1.19.53.28-.29,1.09-.06,1.19-.53Z"/>
    <path class="cls-1" d="M165.06,124.36c.24-.08.78.16.8-.14-.33.02-.55-.07-.66-.26.24-.25.41.18.53-.27-.38-.03-.67.03-.8.27.16.02.15.21.13.4Z"/>
    <path class="cls-1" d="M166.66,97.86c-.22-.36.21-.62-.27-.79-.02.15.02.37-.13.4-.03-.67-.56-.85-.93-1.19-.03,1,.9,1.05,1.33,1.59Z"/>
    <path class="cls-1" d="M168.51,124.1c.02.33-.21.41-.26.66.79-.26,1.17-.39,1.59-.79-.65,0-.72.29-1.33.13Z"/>
    <path class="cls-1" d="M167.85,98.93c-.32-.66-1.59-.71-2.12-1.19.57.69,1.32,1.04,2.12,1.19Z"/>
    <path class="cls-1" d="M163.61,77.8c.15.09.23.32.4.36-.12-.13-.24-.34-.4-.36Z"/>
    <path class="cls-1" d="M168.91,104.49c-.25.32-.69-.19-1.06.13-.06.6,1.61.19,1.06-.13Z"/>
    <path class="cls-1" d="M178.98,113.77c1.79.05,1.1-.68,0,0h0Z"/>
    <path class="cls-1" d="M180.57,114.43c-.4,0-1.35.14-1.06.4.07-.42,1.19.22,1.06-.4Z"/>
    <path class="cls-1" d="M177.65,119.86c.71-.13,1.19-.49,1.72-.8-.63.14-.72-.54-1.06,0,.16.02.38-.02.4.13-.25.32-.91.24-1.06.66Z"/>
    <path class="cls-1" d="M183.22,106.48c-.82-.26.57-.44,0-.8-.11.2-.43.19-.66.27-.23-.34-.52-.63-.93-.8.35.54,1.06,1.4,1.59,1.32Z"/>
    <path class="cls-1" d="M183.08,112.97c-.65-.67-1.32-2.03-2.12-2.12.71.71,1.33,1.5,2.12,2.12Z"/>
    <path class="cls-1" d="M175.53,106.88c.49.22.21-.08.67-.14-.23.47.09.33.13.8.74,0,1.24.26,1.45.8-.44,0-.7.18-.93.4.56.03.86-.2,1.33-.26.15.64,1.09.5,1.06,1.32.18,0,.29-.06.4-.13.06.64.89,1.59,1.19.8-.81-.74-1.8-1.3-2.52-2.12.45-.12,1.09-.06,1.32-.4-.57,0-.97.18-1.46.26-.65-.46-1.7-1.05-1.72-1.72-.29.05-1-.45-1.33-1.06-.33.28-.92.32-1.19.66.52.03.69-.29,1.06-.4.41.74.88.54.53,1.19Z"/>
    <path class="cls-1" d="M173.54,104.09c-.28-.26-.83-.93-1.06-.8.3.23.8.96,1.06.8Z"/>
    <path class="cls-1" d="M176.86,104.36c-.08.28-.68.5-.13.66.39-1.23,1.36.75,1.72.4-.82-.76-1.7-1.48-2.52-2.25.01.33.25.41,0,.66.82.15.3.27.93.53Z"/>
    <path class="cls-1" d="M178.05,89.37c-.1.12-.15.23.01.21.05-.09.03-.15-.01-.21Z"/>
    <path class="cls-1" d="M177.78,104.09c-.34-.06-.65-.84-.93-.53.28.13.67.83.93.53Z"/>
    <path class="cls-1" d="M178.45,112.7c.93.22,1.69.87,2.78.66-1-.22-2.18-.87-2.78-.66Z"/>
    <path class="cls-1" d="M153.23,70.3l-.15-.15.08-.02c-.08-.02-.15-.12-.2-.19l-.07.08c.13.06.2.28.34.28Z"/>
    <path class="cls-1" d="M159.66,78.46c-.09-.13-.18-.02-.1.06l.1-.06Z"/>
    <path class="cls-1" d="M154.04,71.18c.02-.08-.1-.26-.2-.19.09.03.13.16.2.19Z"/>
    <path class="cls-1" d="M155.73,72.67c.16.11.32.34.47.33-.16-.07-.32-.34-.47-.33Z"/>
    <path class="cls-1" d="M153.86,70.94c-.04-.1-.22-.2-.21-.3l-.12.02c.13.05.19.27.34.28Z"/>
    <path class="cls-1" d="M155.57,72.46c-.08-.06-.17-.18-.26-.14.09.04.17.22.26.14Z"/>
    <path class="cls-1" d="M154.12,71.15l-.04.06c.12.08.31.28.45.36-.07-.17-.3-.26-.41-.42Z"/>
    <path class="cls-1" d="M153.47,70.47l-.06.03c-.04-.05-.07-.1-.12-.06.09.04.14.19.24.18-.06-.05-.02-.1-.06-.15Z"/>
    <path class="cls-1" d="M184.28,102.5c-.55.19-.76-.11-1.06.27.09.05,1.06.18,1.06-.27Z"/>
    <path class="cls-1" d="M183.22,107.27c-.25.02-1.08-.31-.79,0,.7.01.15.07,0,.26.7.06,1.34-.51,1.72,0-.07-.39.66-.65.26-.93-.2.4-1.9.18-1.19.66Z"/>
    <path class="cls-1" d="M185.47,101.44c-.42.12-.41-.21-.66-.26-.13.18-.13.49-.27.66.5.06.83-.06.93-.4Z"/>
    <path class="cls-1" d="M133.45,66.95s-.05-.1-.13-.16l.26,1.05-.13-.88Z"/>
    <path class="cls-1" d="M163.68,78.38c-.19-.11-.33-.41-.53-.45.14.17.34.4.53.45Z"/>
    <path class="cls-1" d="M164.15,77.82s-.09-.14-.16-.12v.02c.36.41.85.86,1.21,1.24-.27-.37-.7-.78-1.05-1.14Z"/>
    <path class="cls-1" d="M162.89,77.72c.09.08.18.25.28.16-.09-.05-.19-.21-.28-.16Z"/>
    <path class="cls-1" d="M163.25,78.28c.04.07.12.19.17.12-.09,0-.08-.19-.17-.12Z"/>
    <path class="cls-1" d="M164.8,124.23c-.23-.08-.78.16-.79-.13.14,0,.1-.17-.13-.13-.74.58,1.33.46.93.26Z"/>
    <path class="cls-1" d="M163.8,79.48c.04-.05-.06-.13-.11-.09-.01.03.08.13.11.09Z"/>
    <path class="cls-1" d="M161.23,77.27l-.02.02.19.18c.07-.09-.1-.21-.17-.2Z"/>
    <path class="cls-1" d="M161.32,77.68l.06-.03s-.07-.13-.12-.09c.02.04,0,.09.06.12Z"/>
    <path class="cls-1" d="M161.12,77.42c-.04-.06-.09-.08-.14-.06,0,.06.1.13.14.06Z"/>
    <path class="cls-1" d="M163.52,78.54l-.02.02c.02.05.1.09.14.08-.02-.04-.07-.11-.11-.11Z"/>
    <path class="cls-1" d="M161.93,78.13c-.06-.05-.12-.13-.18-.09.05.05.11.17.18.09Z"/>
    <path class="cls-1" d="M162.4,79.14l-.09-.04c-.18.09.08.22.09.04Z"/>
    <path class="cls-1" d="M80.67,134.33c-.29-.07-.27-.45-.64-.43-.08.55.51.63.2,1.07.75-.23,1.6.49,1.6.64v-.43c0-.26-.18.22-.31-.1.35-.16.29-.33.44-.54.33.02.85-.07,1.02.11-.23-.59-.62-.21-.94-.32,0-.14.15-.15.12-.32-.26-.24-.76-.23-1.28-.21-.16.31.13.4-.21.54Z"/>
    <path class="cls-1" d="M154.02,162.56c.11.06.7.3.41.14-.11-.04-.25-.38-.41-.14Z"/>
    <path class="cls-1" d="M188.91,112.04c.23-.47.53.78.8.27-.45-.2-1.22-1.38-1.46-.93.51-.07.41.47.66.66Z"/>
    <path class="cls-1" d="M153.54,163.03s.01-.08.07-.06c0-.07.05-.08.07-.14-.3-.18-.68-.27-.88.07.28.06.32-.13.54-.14.08.03.15.07.2.14-.07,0-.08.12,0,.13Z"/>
    <path class="cls-1" d="M156.12,167.44c.15.06.55.29.54-.07-.28.07-.37-.06-.54.07Z"/>
    <path class="cls-1" d="M155.91,167.3c-.32-.15-.66-.29-1.02-.4.12.4.72.34,1.02.4Z"/>
    <path class="cls-1" d="M167.19,128.34c.47.06.75.2,1.06-.13-.31.08-.96-.17-1.06.13Z"/>
    <path class="cls-1" d="M65.06,115.01c.26-.2.26-.15.46-.31.01-.03.02-.07.02-.1-.05.03-.11.08-.19.14.01.02-.27.23-.29.27Z"/>
    <path class="cls-1" d="M167.45,129.8c.27-.14,1.3-.2.93-.53-.17.31-.86.11-.93.53Z"/>
    <path class="cls-1" d="M134.17,156.32c2.62,0,5.61,0,7.85-1.12l-7.85,1.12Z"/>
    <path class="cls-1" d="M104.95,118.3c.15-.31.3-.6.44-.91-.33,0-.73.23-1.07.25.17.26.41.45.64.66Z"/>
    <path class="cls-1" d="M165.86,127.15c1.15-.05,1.61-.78,2.65-.93,1.11-.93,3.15-1.77,4.51-2.52.4-.22,1.37-.3,1.06-.79-2.55,1.05-5.3,2.65-8.22,4.24Z"/>
    <path class="cls-1" d="M104.84,118.51c-.27-.23-.52-.47-.82-.67-.33.15-.78.18-1.06.39.4.49.86.91,1.29,1.37.2-.36.4-.72.59-1.08Z"/>
    <path class="cls-1" d="M162.65,77.84s-.04.03-.02.05c.07-.02.05.14.13.08,0-.05-.06-.11-.11-.13Z"/>
    <path class="cls-1" d="M155.04,167.71c.26.66.73.51,1.35.61-.56-.33-1.2-.71-1.88-.96.11.12.23.24.34.35.05,0,.11,0,.18,0Z"/>
    <path class="cls-1" d="M122.21,157.82l-3.74-1.5c1.12,1.12,2.24,1.87,3.74,1.5Z"/>
    <path class="cls-1" d="M161.6,76.78s-.05.02-.08.04c.08.11.2.22.32.33.11-.18-.26-.2-.24-.37Z"/>
    <path class="cls-1" d="M119.96,159.31l-5.89-4.79s-.02,0-.03,0c1.5,2.19,4.08,3.3,5.92,4.79Z"/>
    <path class="cls-1" d="M167.32,130.19c.05-.14.16-.31,0-.13-1.31-.09-1.31.23,0,.13Z"/>
    <path class="cls-1" d="M144.01,188.64l-.41-.39-.39.92c.32-.63,1.21.09.99-.82l.35.22-.29-.38c-.17,0-.33-.03-.46-.07.24.1.41.32.21.52Z"/>
    <polygon class="cls-1" points="112.75 188.73 112.78 188.76 112.94 188.77 112.75 188.73"/>
    <path class="cls-1" d="M137.42,190.39l-.02.03s.07-.06.02-.03Z"/>
    <path class="cls-1" d="M169.89,176.47l.03.04-.04.03s.02,0,.04,0v-.14s0,.04-.03.06Z"/>
    <path class="cls-1" d="M144.26,188.18h0c.22.01.45,0,.65-.07-.22-.03-.45-.02-.66.07Z"/>
    <path class="cls-1" d="M171.33,176.68s0-.09.03-.13l-.05-.07c-.02.06.01.14.02.2Z"/>
    <path class="cls-1" d="M64.88,131.97c-.08.27.46.45.53.21-.2-.04-.19-.3-.53-.21Z"/>
    <path class="cls-1" d="M169.9,177.19l-.21.26c.07-.06.13-.12.2-.18v-.09Z"/>
    <path class="cls-1" d="M181.86,127.41c.04.12.07.22.11.35-.01-.23.1-.34.34-.32-.06-.17-.18-.28-.34-.34-.13.02-.1.19-.11.32Z"/>
    <path class="cls-1" d="M178.58,120.39c.05-.18.75-.37.4-.53-.29.52-1.61.62-1.06,1.19-1.12.25-1.82.91-2.65,1.46,2.06-.81,4.07-1.67,5.7-2.91-.9.07-1.64,1.01-2.39.79Z"/>
    <path class="cls-1" d="M169.91,176.33s.02.05.02.08v-.09s0,.01-.02.02Z"/>
    <path class="cls-1" d="M89.48,163.09c.22.13,1.52.64.88.29-.23-.08-.54-.81-.88-.29Z"/>
    <path class="cls-1" d="M181.62,125.9c-.07-.04-.14-.05-.21-.09-.02,0-.05-.04-.08-.03.05.15.19.51.38,1.06h.26c-.03-.28-.5-.66-.35-.94Z"/>
    <path class="cls-1" d="M177.65,112.44c.14,0,.1-.17-.13-.13-1.14-.33-1.82-.75-3.31-.93-.09-.3-.75-.04-.66-.53-.41.41-1.5-.42-1.46,0,1.81.45,3.37,1.14,5.3,1.46.03.1.11.15.27.13Z"/>
    <path class="cls-1" d="M188.12,117.87c.76-.11.89.43,1.32.66-.04-.26.18-.26.26-.4-.74.19-1.14-.99-1.59-.26Z"/>
    <path class="cls-1" d="M186.53,116.81c-1.86.83-3.8,1.59-5.3,2.78,1.8-.9,3.86-1.53,5.3-2.78Z"/>
    <path class="cls-1" d="M174.34,115.75c.59-.2.96.18,1.19-.26-.5-.11-.86-.08-1.19.26Z"/>
    <path class="cls-1" d="M142.22,188.33c-.08-.16-.38-.19-.49-.27.13.75-.65.19-.1,1.09.17-.03.34-.1.56-.26l-.54.05c.02-.45.61-.22.57-.61Z"/>
    <path class="cls-1" d="M140.58,188.92l-.03.57c.29-.22.51-.26.72-.29-.19-.12-.22-.47-.69-.28Z"/>
    <path class="cls-1" d="M141.64,189.17s0,0-.01-.02c-.12.03-.24.04-.36.05.08.05.19.06.37-.04Z"/>
    <path class="cls-1" d="M139.55,189.31c.13-.1-.79.25-.76.52.17.07.46-.46.66,0,.6-.1-.45-.35.1-.51Z"/>
    <path class="cls-1" d="M70.1,100.35c.22-.16.35-.26.48-.36,0,0,.01,0,.02,0,0,0,0-.01.01-.02-.29.19-.54.35-.51.39Z"/>
    <path class="cls-1" d="M139.54,188.68c-.25.12-.55.21-.8.31.36.17.5-.04.8-.31Z"/>
    <path class="cls-1" d="M169.17,177.02v-.07s-.06.05-.08.07c.03,0,.06,0,.08,0Z"/>
    <path class="cls-1" d="M169.18,177.58s-.07,0-.07.03c.03.02.05-.01.07-.03Z"/>
    <path class="cls-1" d="M142.98,188.35l-.35.14c.23-.02.32-.07.35-.14Z"/>
    <path class="cls-1" d="M142.98,188.35l.5-.21-.29-.39c-.63.01-.13.38-.21.6Z"/>
    <path class="cls-1" d="M149.61,187.06c.31-.07.55.14.55.37.18-.4-.24-.55-.55-.37Z"/>
    <path class="cls-1" d="M88.45,164.12c0-.09.02-.17.15-.14,0-.15.12-.18.15-.3-.64-.4-1.48-.59-1.91.15.61.13.7-.28,1.18-.29.17.07.33.16.44.29-.15,0-.18.26,0,.29Z"/>
    <path class="cls-1" d="M94.03,173.67c.32.13,1.2.64,1.17-.14-.61.15-.81-.13-1.17.14Z"/>
    <path class="cls-1" d="M109.55,187.4l.07-.25c-.08.06-.13.13-.07.25Z"/>
    <path class="cls-1" d="M93.59,173.37c-.7-.32-1.43-.62-2.2-.88.26.88,1.56.75,2.2.88Z"/>
    <polygon class="cls-1" points="169.07 177.51 169.06 177.54 169.03 177.56 169.03 177.6 169.14 177.51 169.07 177.51"/>
    <path class="cls-1" d="M93.15,167.2c-1.51-.24-2.49-1.77-3.82-.44-.38-.21-.55-.54-1.03-.29-.04.29.2.29.29.44-.78.2-1.7-.56-2.06.15,1.04-.04,1.15.19,2.2.29,1.37-1.35,2.83.38,4.41-.15Z"/>
    <path class="cls-1" d="M138.7,188.97s0,.02.01.03c0,0,.02,0,.03-.01-.01,0-.03,0-.04-.02Z"/>
    <polygon class="cls-1" points="109.62 187.15 109.77 187.08 109.65 187.05 109.62 187.15"/>
    <path class="cls-1" d="M88.62,137.99c-.41.05-.57-.15-.64-.43.17,0,.29.03.39.1-.14-.08-.27-.17-.41-.25-.08,0-.17-.02-.23,0,0-.05,0-.09,0-.13-.41-.23-.82-.44-1.23-.65-.09.04-.18.1-.24.19.26-.02.52-.02.54.21-.21.21-.43-.11-.75-.11.1.58.8.56,1.07.97-.31-.12-.4-.06-.54.21.16.27.7-.22.43.22.39.04.59.26.97.32.12-.27-.46-.37-.11-.54.47.07.91.73,1.4.43-.14-.13-.18-.27-.14-.4-.13-.09-.27-.17-.4-.25-.01.06-.03.11-.09.12Z"/>
    <path class="cls-1" d="M110.7,187.61l.61-.34c-.18-.05-.62-.14-.61.34Z"/>
    <path class="cls-1" d="M111.24,188.22c.1.03.18.07.28,0-.23-.29.23-.12.38-.22-.48-.43-.31.2-.66.23Z"/>
    <path class="cls-1" d="M110.54,186.83c-.03-.16-.35-.02-.51,0l.1.06c-.09.09-.24.14-.36.19.4.16.5,1.11.81.31l-.46-.17c.1-.34.15-.52.43-.4Z"/>
    <path class="cls-1" d="M138.25,189.33v-.11s-.38.41-.62.91c.41-.53,1.48-.17,1.08-1.12-.23.09-.41.19-.46.33Z"/>
    <path class="cls-1" d="M68.43,104.85s.03-.03.05-.06c.01-.03.02-.06.04-.09-.25.18-.45.4-.08.14Z"/>
    <path class="cls-1" d="M67.93,106.28s0-.03.01-.04l-.15.11c.06-.03.1-.05.14-.07Z"/>
    <path class="cls-1" d="M86.47,133.9c.4.14.09.26.02.48.19-.08.38-.16.58-.24-.23-.16-.39-.45-.6-.24Z"/>
    <path class="cls-1" d="M68.5,104.61c-.29.23-.99.8-.27.31-.13.03.19-.18.29-.22.03-.08.06-.16.09-.23-.07.05-.13.09-.15.09.06-.05.11-.09.17-.13,0-.02.02-.04.02-.06-.41.27-.87.55-1.04.72.38-.23.64-.36.89-.47Z"/>
    <path class="cls-1" d="M84.32,135.73c.46.17-.12.13,0,.53.31.02.71.5.97.22-.41-.1-.54-.27-.11-.43-.11-.04-.26-.17-.41-.27-.09-.04-.17-.08-.26-.12-.07,0-.14,0-.19.07Z"/>
    <path class="cls-1" d="M169.48,176.72l.02-.04h0c-.05.04-.1.08-.15.13h.02s.06.02.06.02l.02-.04h.07l.03-.03v.04s.03,0,.03,0c0-.04-.05-.11-.08-.08Z"/>
    <path class="cls-1" d="M67.97,106.17c.02-.06.04-.12.06-.18-.16.17-.43.4-.58.56.18-.13.35-.26.52-.39Z"/>
    <path class="cls-1" d="M88.32,139.42c-.54-.19-1.15-.36-1.74-.57-1.22-.44-2.4-1.13-3.33-1.07,2.29.74,3.92,1.71,6.23,2.25-.3-.26-.7-.45-1.15-.6,0,0-.01,0-.02,0,0,0,0,0,.01,0Z"/>
    <path class="cls-1" d="M88.62,137.99c.06,0,.08-.06.09-.12-.12-.07-.23-.15-.35-.22-.1-.06-.22-.1-.39-.1.08.28.23.48.64.43Z"/>
    <path class="cls-1" d="M114.07,154.52l5.89,4.79c-1.85-1.48-4.42-2.6-5.92-4.79-.6.06-1.19.11-1.79.17,2.86,1.84,5.61,3.77,8.25,5.77,2.64,2,5.16,4.08,7.56,6.23,2.41-2.15,4.93-4.22,7.57-6.23,2.64-2,5.39-3.93,8.25-5.77-5.26-.58-10.54-.87-15.82-.87-4.67,0-9.34.24-14,.69ZM118.47,156.32l3.74,1.5c-1.5.37-2.62-.37-3.74-1.5ZM142.02,155.2c-2.24,1.12-5.24,1.12-7.85,1.12l7.85-1.12Z"/>
    <path class="cls-1" d="M109.02,103.03c.33-.51-.11-.45.49-.43-.01.29-.68.67-.21.8.4.43.79-.39,1.23-.19l-.1-.23c-.47-.21-.93-.43-1.36-.65l-.04.09c-.15-.31-.4-.1-.77-.12.48.25.39.55.77.72Z"/>
    <path class="cls-1" d="M117.2,132.37c-7.31-.46-14.65-.46-21.95,0,7.54,3.18,14.64,6.84,21.27,10.91.23-3.64.46-7.27.69-10.91Z"/>
    <path class="cls-1" d="M137.61,111.46c.16.31.3.2.42-.05-.22-.03-.43-.07-.65-.11,0,0,0,0,0,0h0c-.19-.04-.39-.09-.58-.12.03.08.05.16.07.25.25.09.49.12.75.02Z"/>
    <path class="cls-1" d="M105.9,101.56c.07.06.14.12.21.2.02,0,.04,0,.06,0-.05-.02-.15-.1-.28-.2,0,0,0,0,0,.01Z"/>
    <path class="cls-1" d="M105.2,101.13c.14.06.24.08.26.02-.02-.02-.04-.04-.07-.06l-.19.05Z"/>
    <path class="cls-1" d="M131.29,110.06s.05-.05.08-.07c-.13-.03-.26-.07-.39-.1.1.13.2.55.52.23-.08-.04-.09-.12-.2-.06Z"/>
    <path class="cls-1" d="M129.11,109.41v.11s.13-.07.13-.07c-.04-.01-.09-.03-.13-.04Z"/>
    <path class="cls-1" d="M128.05,109.55c.08-.11.15-.26.22-.37-.15-.04-.3-.08-.46-.13,0,.04-.02.09-.05.13,0,.19.22.27.29.36Z"/>
    <path class="cls-1" d="M138.94,132.37c.23,3.64.46,7.27.68,10.91,6.62-4.07,13.73-7.73,21.27-10.91-7.31-.46-14.65-.46-21.95,0Z"/>
    <path class="cls-1" d="M190.96,116.47c-.07-.03-.13-.05-.19-.06.05-.07.1-.09.16-.1-.08-.43-.16-.86-.25-1.29-1.36.66-2.68,1.3-3.89,1.92.57-.83,1.83-1.5,2.91-1.99.29-.13.58-.26.87-.39-.97-4.53-2.41-8.88-4.29-13-.17.06-.35.11-.56.14-.06-.38.13-.52.33-.62-.41-.88-.84-1.76-1.29-2.62-.15.35-1,.48-.77.73-.16.19-.45.25-.8.26.1-.12.24-.2.4-.26-.11-.39-.43.25-.66.18,0-.57.99-.62.93-.62h.86c-.14,0-.28-.71-.42-.97-.01,0-.03-.09-.04-.09,0-.02.01-.08.02-.1-1.13-2.09-2.38-4.12-3.73-6.06-.47.32-.97.54-1.5.65.1-.22.36.06.57-.43.22-1.12-1.02-1.22-1.02-2.26.08-.28.09-.38.1-.51-.03-.04-.05-.07-.08-.11l-.1.11c-.12-.15-.45-.26-.42-.57-.11.04-.4.3-.26.3-.44.05.12-.87-.21-.76-.07.28-.35.17-.37.44-.15-.1.1-.46.33-.81-1.96-2.4-4.1-4.66-6.39-6.76-.62-.34-1.19-.8-1.79-1.15-.08.07-.06.13-.05.19-.68.42-1.53-2.71-2.46-1.52.08-.21.34-.32.17-.41-.07.08-.19.17-.28.37.06-.95-.96-.57-1.16-1.34-.12.22-.3.27-.4.42.14-.61-.48-.24-.46-.61l-.1.28-.5-.29c-.07.09,0,.13.02.18-.17.05-.04-.24.08-.46l-.53.42c-.09-.71-.62-.72-1.15-.74.47.51.94,1.01,1.38,1.5-.31-.12-.49-.53-.8-.74v-.07c-.3-.17-.54-.44-.79-.71-.1,0-.19-.02-.28-.04.03.03.05.06.08.09l-.11-.1c-.07-.02-.14-.04-.2-.08.19.28.57.48.74.77l.07.19c.06.08.19.15.27.22.63.54,1.13,1.19,1.7,1.76-.42-.16-.71-.66-1.09-.98-.28-.24-.47-.59-.79-.69.03-.02.06,0,.09-.03-.35-.28-.55-.62-.91-.92l.02.04c-.2-.14-.38-.31-.56-.49-.04.04-.07.08-.11.12.14.1.32.19.33.35-.03.04-.05.04-.08.06-.03.05.05.14.11.16.07-.06-.07-.09-.07-.13.04-.04.08.01.12,0,.02.17.29.29.4.45-.14-.01-.27-.2-.38-.32.13.37.79.72.93,1.09.25.06.37.41.6.53-.02.04-.1.02-.14,0-.14-.08-.27-.4-.43-.37-.2-.31-.51-.58-.8-.87-.11-.12-.19-.29-.28-.37l-.16-.08c-.08-.06-.08-.18-.14-.25-.04-.04-.1-.08-.16-.11-.08.05-.15.08-.23.08.08.08.16.17.24.15,0,.17.29.24.35.4-.23-.08-.45-.32-.64-.54l.03.17c-.35.3.09-.23-.15-.12-.04.04-.07.09-.1.14.05.07.11.15.17.19.06.03.16,0,.2.03.11.07.08.28.24.28l-.04.05c.2.04.34.38.52.44.03.05.07.1.05.15.68.39,1.2,1.14,1.82,1.7-.24-.12-.54-.4-.72-.63-.04-.05-.06.01-.08,0-.66-.71-1.44-1.43-2.19-2.14-.11.22-.12.43.07.28.02.2-.1.33-.21.41-.54-.31-.91-.73-1.13-1.77-1.59-1.42-3.15-2.71-4.72-4.1l-.04.09c-.32-.2-.64-.57-.97-.85.06-.06.13,0,.17.08-.17-.42-.73-.84-1.13-1.14-.09.07.2.15.09.25-.06-.01-.05-.08-.11-.12v.09c.06.07.13.03.21.11-.03.04-.06-.03-.08-.02-.06.04.04.07-.03.1-.44-.45-.82-.91-1.18-1.37-.26-.11-.53-.2-.79-.3-.08.05-.15.11-.21.21-.04,0,0-.03-.04-.05-.05.02-.1.06-.15.12-.06-.02-.12-.03-.19-.1-.12.19-.41.29-.44.5-.07-.03-.17-.03-.21-.13-.14,0-.28.09-.41.16.06-.17.25-.12.36-.24-.08-.05-.15.02-.23.02.05-.09.15-.07.22-.11.04-.08-.02-.17,0-.24l.11.05s.02-.05.03-.07c-.05-.02-.1.02-.15-.04.04-.03.08,0,.13,0,.08-.08.04-.22-.08-.22l-.1.15c-.16-.05-.41-.26-.36-.42-.08.04-.09-.08-.07-.13-.19.01-.12.14-.21.28.01-.09-.06-.2.04-.26-.05-.04-.04-.11-.1-.06.01-.04.02-.08.02-.12-3.13-1.07-6.38-1.9-9.71-2.48-.05.31-.14.6-.08.89.46,1.64.73,3.32,1.12,4.82l-.43-1.81c.2.91.32,1.68.39,2.63-.22-.24-.22-.87-.46-.97-.39-1.85-.59-3.74-.73-5.6-.59-.1-1.18-.19-1.77-.27.16.94.27,1.9.25,2.84-.02-.93-.14-1.88-.27-2.84-.19-.03-.39-.06-.58-.08l.22,1c.12.92.2,1.82.17,2.72-.19-1.24-.35-2.48-.5-3.74-2.72-.35-5.49-.54-8.31-.54-12.7,0-24.54,3.71-34.49,10.1.05.35.1.7.15,1.05-.12-.31-.22-.62-.32-.94-.63.41-1.25.82-1.86,1.25l.3,1.39c.12.92.21,1.83.18,2.71-.21-1.34-.38-2.7-.54-4.06-1.08.75-2.14,1.54-3.16,2.36.1.18.16.36.24.53l-.09-.37c.07.07.13.13.12.17l.06.38c.14.24.33.43.75.48-.19.07-.39.15-.57.39.49,2.16-2.34,2.96-3.56,3.28-.54-.34-.93-.74-1.19-1.16-.6.57-1.19,1.15-1.77,1.75-.06.16-.15.32-.29.49-.03-.03-.07-.06-.1-.08-.23.24-.46.49-.69.73.63-.14,1.34.06,1.78.91-.55.84-1.13,1.5-1.78,1.64-.88-.26-1.24-.69-1.28-1.12-1.24,1.42-2.42,2.89-3.54,4.41,1,1.2,1.96,2.33,2.03,3.3-1.22.43-1-1.89-1.9-2.52-.61-.2-.7.64-1.32.92-1.65,2.42-3.14,4.96-4.45,7.6-.33.2-.84.57-.92.68.29-.18.6-.4.87-.6-.02.04-.04.08-.06.12-.25.15-.52.33-.96.62-.22.18-.18.21-.61.52.09-.15-.01-.07-.08-.11.81-.61.3-.24,1.14-.81-.75.44.44-.49-.25,0,.1-.07.19-.14.17-.1-.67.47-.12.03-.68.42-.25.21.1.02.22-.03-.33.24-.41.34-.62.5-.09.01-.01-.12-.72.36.28-.24.16-.28-.55.26-.39.3.44-.22-.29.29.34-.16.14.08-.56.59-.23.15-.06-.04-.36.17.1.12,1.17-.42.61.17.53-.36.52-.25.87-.51-.07.15.2,0-.24.34-.13,0-.12.02-.07-.1-.59.39-.06.12-.45.39-.2.13-.38.25-.51.32.16-.21.41-.45-.57.23-.09.14.23-.07.39-.15-.17.16-.66.5-.61.52.42-.27.5-.37.66-.45-.69.53.03.13.22-.03-.11.14-.6.5-.92.77.44-.3.52-.29.86-.51-.23.17-.26.21-.49.35.42-.25.11.04.73-.35-.04,0,.51-.44.12-.17,0,.02-.2.16-.17.1.62-.48.36-.2.68-.42.33-.28.21-.2.42-.43-.22.16-.36.25-.5.33.21-.07-.54.4-.65.46.04-.04.36-.34-.04-.05,0,.01-.27.22-.32.23.59-.43.91-.66,1.6-1.18-.47.39.62-.33.09.11.46-.28.93-.58,1.05-.58.53-.36.31-.28.62-.51,0,0,.01,0,.03,0,0,.01,0,.02-.01.03-.31.22.06.04-.29.28-.69.51-1.02.81-1.39,1.13.44-.3.57-.33.87-.49-.2.12-.59.39-.98.68.1.03,1.09-.72,1.31-.91.18-.1.2-.1.23-.1-.06.12-.11.24-.16.37-.46.3,0-.13-.31.08-.19.23-.86.62-1.15.8l.04.05.97-.69c-.15.16.23-.06.43-.21-.11.26-.23.52-.34.79-.35.24-.18,0-.63.37.28-.19-.02.04.03.04.34-.27.42-.23.59-.38-.05.11-.09.22-.13.32-.18.14-.39.28-.65.46l.04.06c.23-.16.41-.29.57-.42-.02.05-.04.1-.06.15-.41.29-.87.62-1.13.78.84-.64-.55.37.28-.29-.21.16-.63.38-.66.45.46-.28-.51.44-.79.61.11,0-.71.62.07.1-.15.06.18-.23.15-.13.9-.63,1.41-1.05,2.04-1.45-.06.14-.12.29-.18.43-.03.02-.06.05-.09.07-.2.13-.38.25-.51.32,0-.02.19-.17.13-.16-.48.29-1.55,1.06-1.59,1.19.24-.12.59-.45.66-.45-.45.36-.15.16-.1.2-.4.29-.52.34-.63.48.19-.14.46-.33.49-.33-.09.11-.51.42-.59.54.31-.19.53-.41.83-.55-.21.2-.38.32.04.06-.75.65,0,.17-1.01.98.5-.39.62-.43.83-.56-.25.09.68-.63,1.27-1.06-.01.04-.03.08-.04.12-.06.05-.1.09-.11.11.03-.03.06-.04.09-.06-.02.07-.05.13-.07.2-.25.2-.48.38-.56.48.31-.22.43-.32.53-.41-.05.14-.11.28-.16.42-.84.63-.87.55-1.57,1.05-.05.08-.32.29-.27.31.48-.28,1.26-.97,1.17-.76l-.64.47c-.12.17.73-.51.69-.41-1.1.78-.12.23-.73.69-.14.04-.02-.07-.21.04-.43.35.32-.15-.11.19-.38.18-.79.61-.83.56-.4.29-.67.5-.79.62.23-.16.2-.1.35-.19.59-.44.92-.62,1.29-.94-.15.23.45-.34.67-.43-.27.18-.68.54-.3.26.13-.14.77-.58,1.03-.74,0,.01-.01.03-.02.04-.35.29-.94.72-1.45,1.11.09.01.47-.29.23-.03l.64-.47c.01-.07-.4.22-.38.15.34-.2.67-.52.82-.56-.25.26-.29.38-.04.29-.22.16-.35.26-.47.37.24-.21.13-.2-.36.18.16-.06-.2.2-.11.19.56-.42.65-.42.89-.56-.03.08-.06.16-.08.24-.16.11-.29.21-.35.27.08-.04.2-.1.33-.18-.08.24-.16.49-.24.74-.09.07-.16.14-.27.22-.04,0,0-.06-.19.07-.03.05-.34.27-.48.35.03.02-.1.12-.31.25.16-.06-.2.2-.11.19.9-.69-.01.07.52-.3.36-.3.11-.18.27-.31.14-.09.34-.23.53-.38-.02.06-.04.12-.06.18-.16.11-.31.2-.57.4-.05.12.34-.2.55-.35,0,.02-.01.04-.02.06-.09.06-.18.12-.33.23.02.05.29-.17.04.06.1-.07.18-.13.25-.18-.02.07-.04.14-.06.21-.28.32-.22.44-.16.53-.08.27-.17.55-.24.83-.09.07-.19.14-.31.22,0,.03.07.02.2-.06.03-.02.05-.04.08-.06-.04.13-.07.26-.11.39-.16.09-.38.24-.81.54-.08.14-.44.43-.41.44-.02,0-.04,0-.17.1.05.07.75-.43,1.32-.83-.28,1.02-.53,2.05-.76,3.09l-.38.29c-.11.15-.34.37-.55.59,0-.06-.28.14-.52.31.08,0,.02.08-.1.2.52-.37,1.28-.81.92-.44.16-.2-.52.38-.36.18-.3.23-.52.42-.61.51.47-.34-.18.2.06.07.51-.39.94-.72,1.43-1.08-.71,3.39-1.14,6.87-1.28,10.43.08.06.16.12.25.18,2.42.05,3.79,1.15,5.8,1.61.24.06.15-.2.32-.21.45.3.96.55,1.5.75.36-.3.74-.59,1.14-.87-.18-.14-.35-.32-.5-.42-.68.13-2.24-.49-2.9-1.07,1.62.45,2.72.55,3.74,1.26.4-.27.83-.53,1.27-.78,0,0-.1.27-.25.73,1.32.33,3.25.87,4.38,1.69-.49.02-.54.13-.86-.11-.26.13.6.61.32.75-.28.13-.28-.52-.32,0-.56-.59-1.58-.71-2.36-1.07.35-.57.87.18,1.5,0-.34-.32-1.63-.2-1.39-.75-.59,0-.83-.35-1.27-.5-.14.42-.34,1-.57,1.73,1.83.49,3.71.92,4.84,2.1-.15-.01-.3-.02-.32.11.09.16.27.23.54.21.15-.02.04-.32.21-.32,1.15.32,2.28.93,3.44,1.5,1.25.62,2.8,1.28,3.44,2.26-.31.03-.33-.24-.64-.22-.14.14-.14.4.11.43-.59.34-1.34.08-2.26.21.28-.19,1.21-.42,1.83-.21-.18-.5-.84-.52-1.29-.76-.15.04-.01.19.11.22-.88,0-1.25-.8-2.15-1.08.02-.11.21-.07.22-.21-1.56-.11-3.9-1.72-5.37-2.26.66.79,2.75,1.43,3.33,2.04-1.8-.53-3.65-1.94-5.58-2.68.02-.27.36-.03.43,0,.15-.58-1.25-.64-1.07-.54-.01,0-.03,0-.04,0-.43,1.41-.95,3.19-1.47,5.2.11.02.22.05.33.07-.08.05-.22.09-.38.11-.19.77-.39,1.58-.58,2.41,1.4.69,2.79,1.39,4.18,2.1-1.38-.49-2.82-1.12-4.25-1.81-.26,1.17-.51,2.39-.73,3.63,1.07.63,2.16,1.24,3.25,1.83.33.08.13-.37.54-.22.06.28-.04.39-.32.32.66.44,1.36.92,2.1,1.4.87-.76,1.88-1.38,3.04-1.78,0,0-.38,1.19-.85,3.09.97.52,2.01,1,3.13,1.37.13-.35-.35-.48-.21-.82.22.21.71.15.75.15h-.32c.59,1.93,1.19,1.13,1.72,1.57-.13.32-.41.12-.54.09.28.63-.39.17-.86.31-.04-.2-.3-.15-.21-.49-.54.22-.5-.11-1.08-.08-.03-.32.24-.32.21-.63-.04.25-.47.11-.43.44-.17-.26-.71-.15-.64-.64-.47,0-.63-.3-1.07-.32-.14-.23-.33-.42-.54-.59-1.09,4.42-2.62,12.22-1.6,18.08.65.07,1.2.21,1.83-.03-.11-.36-.05-.43-.44-.73,1.06-.19,3.8.35,5.87.14-1.39.63-1.17.44-2.94.3.03.46.58.4,1.03.44-.11.13-.16.33-.15.58-.71.08-1.05.52-1.76.59-.26-.48-.32-1.15-.89-1.32.02.84-1.18.48-2.06.74.08-.12.15-.24.15-.44-.21-.04-.42,0-.6.04.2,1.07.49,2.08.9,2.98l1.57,2.37c.72.84,1.47,1.67,2.23,2.48.21.06.41.14.6.22-.14,0-.25.02-.36.03.8.83,1.62,1.64,2.46,2.43.85.16,1.77.5,2.16-.4,1.73.18,2.6-1.26,3.38.29.76.07.95-.41,1.76-.29.56,1.44,1.59,1.1,2.94,1.32-1.96-1.15-4.33-2.6-6.9-2.65.07-.85-1.08-.48-1.32-1.03-.44.1.14.31,0,.59-.55-.02-1.09-.56-.88-.88-.24-.04-.25.14-.44.15-.35-.09.52-.31-.15-.44.46-.29.87.13,1.32-.29,1.24.97,3.34,2.1,5.58,2.2-.02.17-.27.13-.44.15,1.68,1.38,4.04,1.18,5.87,2.35.33,1.46-1.37.88-1.47,1.91.04.3.64.04.73.29-1.22.13-2.42.24-3.67-.44-.18.06-.3.19-.29.44-1.91-.95-4.03-1.15-6.3-1.57.84.73,1.7,1.43,2.58,2.12.4.07.82.11,1.22.04-.21.22-.45.32-.7.36,3.1,2.37,6.43,4.46,9.94,6.23.03.01.05.02.08.04.46.24.93.46,1.4.68.08.03.15.07.22.1.42.2.85.39,1.28.58.1.04.2.09.3.13.41.17.82.35,1.23.52.11.05.23.1.35.14.4.16.81.32,1.22.47.12.05.23.09.35.13.42.16.84.31,1.26.46.1.04.21.08.32.11.46.16.93.31,1.4.46.06.02.13.04.19.06.05.02.09.03.14.04.02,0,.03,0,.04.01.69.21,1.38.41,2.08.61.38-.42.58-.03.8.22.08.02.15.04.23.06.05.01.1.03.15.04.02,0,.04.01.05.01.07-.05.15-.13.24-.26-.24-.28-1.16-.52-.97-.8.25.4.63-.16,1.11-.16l-.03-.04.18.05h-.15s.45.52.45.52c.29-.22.11-.27-.03-.49.68.71,2.16.38,3.17,1.23.69,0,.16-.37.52-.62.26.6.94.26,1.31.33.1.06.39-.43.32-.66l-.98.17c.09-.27.04-.75-.3-.75.04,1.07-1.17-.87-1.46.26l.12-.52-1.25.12.02.08c.04-.16-1.08.14-1.68-.24.23-.13,1.27.33.76-.39.55-.18,1.31.47,2.23.42l-.1-.39c1.02-.29,2.1.56,3.13.62l-.38.44c.33.25.74.72,1.14.34-.44-.03-.18-.28-.07-.48.62-.2,1.44.24,2.26.12,0,0-.05.1-.02.18l.86-.23c.38.12.5.42.72.76.15-.06.52-.01.4-.31-.08-.03-.15-.07-.2-.04.46-.5.29.18.83-.13-.43.44.09.65.02,1.11.63-.18.09-.82.18-1.03.74.3.82.7,1.58.82.05-.28-.54-.22-.59-.54.21.08.46.07.5-.04l-.46-.24c.77.39,1.53.42,2.38.2l-.07-.15h.53s-.17.54-.17.54c.28-.13.62.3.75-.13l-.11-.03.35-.2-.34.55c.48.19,1.03-.95,1.77-.91.23.7-1.25.35-1.28,1.28.26.13.71.25.84,0-.05-.25-.23-.24-.41-.23.61-.51,1.68.14,1.99-.74l-.52-.23c.5-.16.97.61,1.13.29l.03-.1-.03.1-.28.87c.52-.52,1.28-.53,1.75-1-.09-.53-.76.18-.74.06l.18-.43c.88.12.29.27,1.36.36l-.07-.35c.34.49,1.27-.79,1.1.22-.32,0-.28-.09-.43-.13l.12.41c.57-.22.8-.4,1.21-.59-.04.34.5.11.45.56l.34-.48c.35.54-.63.91-.57,1.37.08.27.28.18.38.12l.02-.03s.02,0-.02.03c-.47.58-.88-.4-1.54-.26l-.17.43-.11-.52c-.19.14-.31.52-.34.75-.68-.61-1.06.41-1.91.37.62-.39-.51-.44-.42-.6-.35.04-1.15,1.1-1.54.5-.24-.22.4-.44-.12-.49-.32.1-.52.38-.28.63-.74.21-1.63.17-2.46.22l.18-.35c-.52-.29-1,.2-1.27.59-.08-.14-.11-.04-.04-.25-.48-.42-.71.17-1.22.46.05,0,.11,0,.16,0,.58.02,1.16.02,1.74.02s1.16,0,1.74-.02c.19,0,.38-.01.57-.02.39-.01.78-.03,1.16-.04.22-.01.44-.03.67-.04.35-.02.71-.04,1.05-.08.24-.02.46-.04.7-.06.05,0,.11,0,.16-.02.21-.08.41-.18.61-.26l-.23.22c.16-.02.32-.03.47-.05.23-.03.46-.05.7-.08.34-.04.68-.08,1.01-.13.23-.03.46-.06.68-.1.34-.05.68-.1,1.02-.16.22-.04.24-.07.45-.11.06-.01-1.93-.02,0-.04v-.02l.2.02c.29-.05.67-.1.96-.16.2-.04.44-.08.64-.11.39-.08.8-.16,1.19-.25.16-.04.32-.07.48-.1.44-.1.89-.21,1.33-.32.05-.05.1-.1.14-.17.06.02.1.06.14.1,0,0,.01,0,.02,0,.11-.03.23-.06.34-.09.02-.05.05-.11.05-.19.17-.02.27.02.33.09.64-.17,1.26-.35,1.89-.54-.23,0-.48,0-.7-.16-.23-.56.9.53,1.06-.1-.01-.05-.03-.07-.05-.09-.51-.08-1.24-.65-1.95-.75-.21.07-.44.09-.65.08l.29.38-.35-.22c.21.9-.67.18-.99.82l.39-.92.41.39c.21-.19.03-.42-.21-.52-.05-.01-.1-.02-.14-.04.04.01.09.03.14.04.13.04.29.06.46.07h0c.21-.1.44-.11.66-.08.23-.07.43-.19.55-.4l-.06-.05.05-.02c-.04-.16.35-.15.35-.13.45-.26.97.1,1.41-.45.19.27.56.24.75.51,0-.34-.07-.51.23-.7.49.18,1.47-.09,1.6.47.01.68-.68-.36-.54.42.12.22.91-.22.61.31-.82.36-1.9-.18-2.55.64.31-.04.62-.05.92-.03.2-.07.4-.13.59-.2.11-.04.21-.07.32-.11.42-.15.84-.3,1.26-.46.07-.03.15-.05.22-.08-.11-.21-.22-.48-.28-.54.36-.02.49-.94-.06-1.08.86-.39.27,1.81.99,1.35l-.08-.62c-.05.36.71.41.9.13l-.14-.08c.49-.08,1.01-.19,1.55-.32.02-.01.04-.01.05-.02.1-.04.2-.09.3-.13.43-.19.86-.38,1.28-.58.07-.03.15-.07.22-.1.47-.22.94-.45,1.4-.68.02-.01.05-.02.08-.04,4.37-2.21,8.46-4.91,12.18-8.02.07-.02.14-.09.18,0-.1.05-.28.05-.31.18l-.05-.02s-.03.09-.02.14c.05-.01.1-.02.14,0-.04.04-.04.08-.03.12-.03.03-.08,0-.08.05l.14-.02v.02s-.07.06-.07.1l-.05.02h.05s-.07.05-.07.05v-.03s-.04,0-.04,0l.02-.02-.06.04s.02.03,0,.04c-.05-.02-.09.07-.15.08h.01s-.27.2-.27.2v.03s-.07.43-.07.43v.41s-.02,0-.02,0v-.38s-.06-.15-.06-.15v-.05s-.05.03-.05.03h.02l.03-.09h-.03c-.38.28-.8.59-1.2.84.02.02.11-.02.09-.04l.07-.03s.07-.05.1-.03l-.05.05.09-.04c-.11.08-.26.19-.38.25v.02s-.04-.01-.05.02l.16-.23-.03-.15h.02s-.11.24-.13.27l.04.08-.26.21.16-.03-.06.05h.08s-.05.05-.05.05l.08-.02-.38-.14s-.07-.47-.11-.47h.02c-.18,0-.37.82-.56.92l-.16.34-.02.16-.03.07-.04.06s.07,0,.1,0c-.06.05-.15.08-.19.14.41-.24.81-.4,1.23-.67l.05-.02h-.04s.11-.06.11-.06c.01.03.05.02.05,0,.06,0,.16-.05.25-.08l-.32.24s.08-.06.1-.03c-.25.22-.57.38-.85.58l-.74.53c.08,0,.15-.1.24-.13l-.2.15h0s-.14.07-.19.11h.03c-.24.18-.56.33-.79.51-.02,0-.05.03-.01.01.29-.18.59-.36.87-.48l-.24.16-.97.62v.02c.23-.13.47-.3.71-.43-.03.02-.06.03-.07.06l.74-.42.71-.48.07-.04.53-.32.2-.15.39-.23c.11-.07.23.37.33.36.03,0,.06.45.08.45h-.05c0-1.93-.03-.47-.05-.49.05,0,.06-.3.12-.29v-.13s.15-.1.15-.1l1.72-2.25s0-.03,0-.03c.02-.02.04-.05.06-.07l.21-.27.03-.64s-.03.01-.04,0l.04-.03-.15-.04s-.09-.03-.09-.06h0s.11-.05.1-.08c0,0,.07-.01.08-.02l.25-5.72c.08.39.15.78.21,1.16l.1-2.35c.51,2.33.94,4.65.63,6.85l.83-.5v-.1l-.56.51s-.44.52-.46.52h-.05l-.03-.4-.02-.28s0-.03-.05-.02c.04.02.01.03-.02.04-.02-.11.04-.23.03-.33l.1.02s-.05.04-.01.05l.05-.08s0-.09,0-.13c-.03.02,0,.04-.03.06l-.08-.02v-.04s.03-.03.05-.05l-.03.07h.02s.06-.02.08-.03c-.02-.03-.01-.06,0-.09.19-.17.37-.34.56-.51.02,0,.04,0,.04-.04.21-.2.42-.4.63-.6l2.05-2.66c-.19.41-.39.82-.6,1.23,1.08-1.09,2.12-2.21,3.11-3.37l1.57-2.37c3.65-8.13-1.58-24.8-1.58-24.8,7.46,2.57,8.57,14.27,8.57,14.28,2.7-8.1-1.17-22.22-3.03-28.12.05-.07.11-.14.22-.16-.06.29-.15.4.11.57,0-.34.34-.58.12-.8-.28.04-.42.09-.55.05-.04-.13-.08-.27-.12-.39.21-.02.25.13.45.11-.1-.61,0-1.17-.19-1.54,7.37,4.67,8.69,13.2,8.69,13.28.08-.41.15-.83.22-1.25.01-.08.03-.16.04-.23.06-.38.12-.76.17-1.13.02-.13.04-.26.05-.39.05-.34.09-.69.13-1.04.02-.17.04-.34.06-.51.03-.32.07-.64.1-.95.02-.21.04-.42.05-.63.02-.29.05-.57.07-.87.02-.25.04-.51.05-.76.01-.26.03-.51.04-.77.02-.31.03-.63.04-.94,0-.2.02-.4.02-.6.01-.52.02-1.04.02-1.57,0-3.94-.36-7.79-1.04-11.53ZM189.71,112.31c-.27.51-.57-.74-.8-.27-.25-.19-.15-.73-.66-.66.23-.45,1,.73,1.46.93ZM161.84,77.15c-.11-.11-.24-.22-.32-.33.03-.02.06,0,.08-.04-.02.17.34.18.24.37ZM162.63,77.89s0-.03.02-.05c.05.03.11.08.11.13-.08.06-.06-.1-.13-.08ZM65.53,114.7c-.21.15-.21.11-.46.31.03-.05.31-.25.29-.27.08-.06.14-.1.19-.14,0,.03-.01.07-.02.1ZM67.93,106.28s-.08.03-.14.07l.15-.11s0,.03-.01.04ZM67.97,106.17c-.17.13-.34.26-.52.39.15-.16.42-.4.58-.56-.02.06-.04.12-.06.18ZM68.48,104.8s-.04.04-.05.06c-.36.26-.17.03.08-.14-.01.03-.02.06-.04.09ZM68.63,104.42c-.05.04-.11.09-.17.13.02,0,.08-.04.15-.09-.03.08-.06.15-.09.23-.1.04-.42.25-.29.22-.72.49-.02-.08.27-.31-.24.11-.5.24-.89.47.17-.16.63-.44,1.04-.72,0,.02-.02.04-.02.06ZM70.6,99.98s0,0-.02,0c-.13.1-.25.2-.48.36-.03-.04.22-.2.51-.39,0,0,0,.01-.01.02ZM79.27,128.32c.66-.13,1.59.41,2.26.64-.77.23-1.47-.54-2.26-.64ZM79.38,147.22c.66.31,1.36.57,1.93.97-.56.02-1.49-.52-1.93-.97ZM166.76,180.31l.05-.04-.05.04ZM167.08,179.94s.04-.04.05-.02l-.05.02ZM167.22,179.84h0s.03-.02.03-.02l-.02.02ZM168.5,178.81l.03-.02-.03.02ZM168.55,178.78v-.02s.02,0,.02,0l-.02.02ZM168.81,178.21s.05-.05.08-.07h0v.07s-.06,0-.08,0ZM186.4,106.21c.35.24-.83.04-.53.66-.53.18-.42-.29-.79-.26.47-.38.78-.26,1.32-.4ZM182.82,117.26c.16-.42.95-.33.53-.88h.4c.07.28,0,.75.4.75-.33.24-.82.33-1.06.66-.36-.12.26-.49-.27-.53ZM183.88,114.43c.11-.39.43.08.66,0-.23-.56-.81-.78-1.19-1.19.5.03,1.32.89,1.72,1.46-.58-.18-.71.01-1.19-.26ZM184.68,110.19c.25-.29.62.43.93.53-.25.29-.62-.43-.93-.53ZM184.81,101.18c.25.06.24.38.66.26-.1.34-.42.46-.93.4.14-.17.13-.49.27-.66ZM184.14,107.54c-.38-.51-1.02.06-1.72,0,.15-.19.7-.25,0-.26-.29-.31.55.02.79,0-.7-.48,1-.26,1.19-.66.4.28-.33.54-.26.93ZM184.28,102.5c0,.44-.97.32-1.06.27.3-.38.51-.08,1.06-.27ZM183.88,105.15c-.25.43-.68.09-1.19.4-.08-.61.72-.34,1.19-.4ZM182.55,105.95c.24-.07.55-.07.66-.27.57.35-.82.54,0,.8-.52.08-1.24-.79-1.59-1.32.4.17.7.45.93.8ZM183.08,112.97c-.79-.62-1.41-1.41-2.12-2.12.8.09,1.47,1.45,2.12,2.12ZM178.32,119.06c.33-.54.43.14,1.06,0-.53.31-1.01.67-1.72.8.15-.42.81-.34,1.06-.66-.02-.15-.24-.11-.4-.13ZM178.98,113.77c1.1-.68,1.79.05,0,0h0ZM180.57,114.43c.13.62-.99-.03-1.06.4-.29-.26.66-.39,1.06-.4ZM178.45,112.7c.61-.21,1.79.44,2.78.66-1.1.21-1.86-.45-2.78-.66ZM178.05,89.37c.05.06.06.12.01.21-.16.02-.11-.09-.01-.21ZM177.51,88.17l-.03.06.03-.06ZM177.78,104.09c-.26.3-.65-.4-.93-.53.28-.31.59.46.93.53ZM175.93,103.16c.81.78,1.69,1.49,2.52,2.25-.36.35-1.33-1.62-1.72-.4-.55-.17.05-.38.13-.66-.63-.26-.1-.38-.93-.53.25-.25.01-.33,0-.66ZM175.13,105.42c.33.61,1.04,1.11,1.33,1.06.02.67,1.07,1.27,1.72,1.72.49-.09.89-.26,1.46-.26-.23.34-.87.28-1.32.4.72.82,1.7,1.39,2.52,2.12-.3.79-1.14-.15-1.19-.8-.11.07-.21.14-.4.13.03-.83-.91-.68-1.06-1.32-.47.06-.76.29-1.33.26.23-.21.48-.4.93-.4-.21-.54-.71-.79-1.45-.8-.04-.47-.36-.32-.13-.8-.45.06-.17.36-.67.14.35-.65-.12-.45-.53-1.19-.37.11-.54.43-1.06.4.27-.34.86-.38,1.19-.66ZM173.54,104.09c-.26.16-.76-.56-1.06-.8.23-.13.78.54,1.06.8ZM173.54,109.39c-.1.47-.91.24-1.19.53-.27-.32.84-.39,1.19-.53ZM171.69,116.28c.43-.23.98-.35,1.59-.4-.39.27-.94.39-1.59.4ZM173.54,121.98c0,.26-.36.17-.26.53-.44-.22-.45.09-.93.13.33-.28.52-.71,1.19-.66ZM171.56,107.8c-.26-.24-.74.04-1.06.13.06-.21.78-.9,1.59-.8-.35.29-.52.26-.53.66ZM171.29,110.05c-.09.14-.3.14-.27.4-.41-.03-.75-.14-1.06-.26.11-.03,1.09-.25,1.32-.14ZM168.51,100.38c.26-.01-.2-.49.13-.66.09-.25.21.14,0,.13.24.17.49.06,1.06.13.4,1.19,1.61,1.57,2.12,2.65-.76-.57-1.29-1.36-2.12-1.86-.31.04.15.36.27.4-.59.37-.8-1.2-1.59-.66-.03-.11.05-.13.13-.13ZM169.84,123.97c-.42.4-.81.53-1.59.79.06-.25.29-.33.26-.66.61.16.68-.14,1.33-.13ZM168.91,104.49c.55.32-1.12.73-1.06.13.37-.32.81.19,1.06-.13ZM167.85,98.93c-.8-.15-1.55-.5-2.12-1.19.53.49,1.8.54,2.12,1.19ZM166.26,97.47c.16-.02.11-.24.13-.4.48.17.04.43.27.79-.43-.54-1.35-.59-1.33-1.59.36.35.89.52.93,1.19ZM165.73,123.7c-.12.45-.3.02-.53.27.11.19.34.28.66.26-.01.29-.56.06-.8.14.02-.19.03-.38-.13-.4.12-.24.42-.29.8-.27ZM163.61,77.8c.16.02.28.23.4.36-.17-.04-.25-.27-.4-.36ZM163.98,77.72v-.02c.09-.02.13.08.18.12.34.36.78.77,1.05,1.14-.37-.38-.85-.83-1.22-1.24ZM163.87,123.97c.24-.04.27.12.13.13.02.29.56.05.79.13.4.2-1.67.32-.93-.26ZM163.8,79.48s-.12-.06-.11-.09c.04-.05.14.04.11.09ZM162.89,77.72c.09-.06.18.11.28.16-.1.09-.18-.08-.28-.16ZM163.16,77.94c.2.04.34.33.53.45-.19-.04-.38-.28-.53-.45ZM163.25,78.28c.1-.07.08.13.17.12-.05.07-.14-.05-.17-.12ZM163.5,78.56l.02-.02s.1.07.11.11c-.04,0-.12-.03-.14-.08ZM162.31,79.1l.09.04c0,.17-.27.04-.09-.04ZM161.93,78.13c-.06.08-.13-.04-.18-.09.05-.04.12.04.18.09ZM161.23,77.27c.07,0,.24.12.17.2l-.19-.18.02-.02ZM161.38,77.65l-.06.03s-.03-.08-.06-.12c.04-.03.1.06.12.09ZM161.12,77.42c-.04.07-.14,0-.14-.06.05-.02.1,0,.14.06ZM159.66,78.46l-.1.06c-.08-.09.01-.19.1-.06ZM156.2,73c-.15,0-.31-.22-.47-.33.15-.01.31.26.47.33ZM155.57,72.46c-.08.07-.17-.11-.26-.14.08-.03.17.09.26.14ZM154.12,71.15c.11.15.34.25.41.42-.14-.07-.33-.28-.45-.36l.04-.06ZM154.04,71.18c-.08-.03-.11-.15-.2-.19.1-.07.22.11.2.19ZM153.64,70.64c-.01.1.17.2.21.3-.14,0-.21-.23-.34-.28l.12-.02ZM153.41,70.5l.06-.03c.04.05,0,.1.06.15-.09,0-.15-.14-.24-.18.05-.04.08,0,.12.06ZM152.96,69.94c.05.07.11.17.2.19l-.08.02.15.15c-.14,0-.22-.22-.34-.28l.07-.08ZM140.35,74.06l-.15-.65.15.65ZM133.45,66.95l.13.88-.26-1.05c.07.07.13.12.13.16ZM129.63,91.26l-.05.06v-.07s.05.02.05.02ZM104.83,71.98l3.41,8.31,2.14,5.21.1.24,1.69,4.13,2.1-3.16.47-.71,2.11-3.17,7.64-11.49,2.67,20.17.73,5.48,3.62-4.17.7-.8.66-.76,12.12-13.81.21,17.6v.85l-.12,3.79,3.62-2.52.18-.15,4.64-3.18,7.42-5.06c-3.77,6.36-8.12,14.77-10.08,22.46-1.46.63-3.46.92-5.95.88-.19.7-.55,1.33-1.16,1.86-.12-.23.5-.2.2-.7-.97-.96-2.92-.21-4.07-.99-.3-.38-1.01-.39-1.01-.6v.28s-.47.09-.78-.16c-.09.1.01.49.19.4-.49.33-.71-.74-1-.44.22.26-.2.36.07.57-.3.02-.36-.46-.47-.89-.21-.08-.41-.21-.63-.36-1.11-.22-2.27-.47-3.48-.76-.02.13-.04.26-.03.39-.25-.71-.84-.3-1.23-.59l-.11.31c-.22.12-.44-.53-.63-.26.06-.18.1-.27.14-.3-.54-.14-1.08-.27-1.64-.42l-.3.55c-.16-.17-.26.21-.4-.13.21.05.37-.24.47-.49-.12-.03-.25-.07-.37-.1-.18.62-.68.54-1,.45-.08-.18.03-.39.11-.55,0-.04,0-.09.03-.14-.16-.05-.32-.09-.48-.14-.18.28.23.52-.19.98.13-.88-.61.04-.59-.46l.34-.16c-.27-.44-.58.19-.87-.33-.12.11-.12.23-.06.33.05.02.1.06.15.12-.05-.07-.1-.1-.15-.12-.23-.1-.47.13-.56-.36.37,0,.83-.22,1.14-.2-.01-.01-.02-.02-.03-.03-.25-.07-.5-.15-.75-.22l-.17.12-.27-.25c-.25-.07-.5-.14-.75-.22-1.43-.43-2.79-.86-4.09-1.28-.11.03-.24.04-.37-.02-.08.5.23.62.52.43l-.19.54c.62.17,1.36.21,1.93,0l-.32.36c.29.85.46-.64.71.28.35-.14-.17-.33.11-.52.19.2-.24.96.12,1.06h.21c-.22-.7.32-.3-.07-.93.4-.32.24.82.72.85h.14s-.43,0-.43,0l-.95.07h0s.13.02.08,0c-1.45,0-2.87-.37-4.33-.7-.06.1.08.15.15.21-.77.65-4-2.63-4.63-1.33.01-.23.35-.37.04-.45-.07.09-.19.19-.2.42-.43-1.05-1.75-.76-2.41-1.64-.09.23-.35.26-.44.42-.03-.67-.82-.43-.94-.88l-.05.3-.88-.51c-.08.07.04.15.09.22-.26,0-.13-.3-.02-.52l-.72.3c-.46-1.62-2.85-1.27-3.5-2.96-.52.18-.82.17-1.15-.08l.03.24c-.6-.02.16-.19-.24-.3-.41.04-.61.45-.17.5.03.26-.19.29-.39.26-.92-1.01-1.36-2.37-1.24-3.68.17.49.33.98,1.03,1.39.47-.38.32.12.83-.22-.09-.08-.1-.09.02,0,0,0-.01,0-.02,0,.25.23,1.16.96,1.63,1.19l.16-.09c-.56-.54-1.19-1.19-1.17-1.12.32-.56,3.17,2.32,3.54,2.01l.1-.16-.1.16-.2.33c.38,0,.73-.1,1.05-.16-3.84-1.95-6.41-3.89-7.67-5.81,2.6-7.48,3.6-16.9,3.95-24.29ZM139.65,112.73c-.17.12-.23,0-.25-.16.12.02.21.06.25.16ZM137.46,112.07h0l-.03-.06.04.06ZM130.01,109.96l-.39-.05-.11-.19.49.24ZM123.77,107.98c.57.16,1.29.09,1.49.57l-.21.57c-.3.05-.72-.66-.84.11.07-.35-.22-.63-.1-1l-.34-.26ZM116.65,118.12c.04.36-.6.04-.68.29-.23-.18.44-.26.68-.29ZM106.33,115.42c-.21.22-.76.08-.77.48-.19,0-.12-.26-.39-.19.24-.39.88-.39,1.16-.29ZM101.41,118.58h.68c-.04.28-.76.35-.58.54-.12.14-.33.17-.58.17.07-.09.18-.15.29-.2-.08-.28-.31.09-.48.03,0-.42.73-.27.67-.55ZM102.57,120.73c-.07.25-.31.33-.67.29.1-.13.09-.35.19-.48.18.04.17.27.48.19ZM101.71,121.5c0,.32-.71.23-.77.19.22-.28.37-.06.77-.19ZM101.41,123.42c-.18.32-.49.07-.87.29-.06-.45.53-.25.87-.29ZM95.63,122.46c.18-.18.01-.24,0-.48.59.57,1.23,1.08,1.83,1.64-.26.25-.97-1.18-1.25-.29-.4-.12.04-.28.1-.48-.45-.19-.08-.28-.67-.39ZM96.31,122.27c.2-.23.43.34.67.39-.19.21-.47-.29-.67-.39ZM94.54,80.87c-.33-1.9-.5-3.84-.63-5.72.64.77.05,1.43.19,2.04.36,1.27.6,2.58.88,3.8.72.31,1.38,1.01,1.86,1.57-.38.9-.52,1.62-1.39,2.21-.03,0-.06,0-.09,0,.06.2.12.39.13.57l-.13-.57c-3.25.45-3.06-3.88-.81-3.9ZM93.12,122.07c.17-.1.57.39.77.58-.19.12-.55-.41-.77-.58ZM93.9,126.51c-.07.35-.67.17-.87.39-.2-.24.61-.29.87-.39ZM91.68,125.45c.04-.16.56-.65,1.16-.58-.25.21-.38.19-.39.48-.18-.18-.54.02-.77.09ZM92.26,126.99c-.06.1-.22.1-.2.29-.3-.02-.54-.1-.77-.19-.11.03.78-.19.97-.1ZM92.48,78.84c-.02-1.03-.17-2.09-.31-3.17.2,1.05.33,2.13.31,3.17ZM92.64,121.59c-.55-.41-.94-.99-1.54-1.35-.23.03.11.26.19.29-.43.26-.58-.87-1.16-.48-.02-.08.04-.09.1-.1.18,0-.15-.36.1-.48.07-.18.15.1,0,.1.17.12.35.05.77.1.29.87,1.17,1.14,1.54,1.93ZM90.52,122.94c.4.23-.81.53-.77.1.27-.23.58.14.77-.1ZM88.21,118.02c.39.36,1.31.39,1.54.87-.58-.11-1.13-.37-1.54-.87ZM90.42,86.4c-.55.9-1.46.44-1.43-.26.43-.26.89-.29,1.43.26ZM88.69,117.54c.35.13.03.32.19.58-.31-.4-.98-.43-.96-1.16.26.25.65.38.67.87.11-.01.08-.17.1-.29ZM86.96,83.79c.42-.42,1.36-.09,1.47.57-.43.61-.96.54-1.56-.09.18-.18.19-.34.09-.48ZM83.79,129.82c.08-.4.6-.06.86,0-.09.22-.75.11-.86,0ZM85.64,87.69c-.45-.25-.86-.22-1.34-.74.07-.73.64-1.53.92-2.29.53.12,1.01-.18,1.6.39-.32,1.16-.37,1.37-1.18,2.64ZM80.88,133.79c.52-.02,1.02-.02,1.29.21.03.17-.1.19-.11.32.32.11.74-.26.97.32-.18-.18-.63-.08-.97-.11-.15.21-.2.38-.55.54.13.32.31-.16.31.1v.43c0-.16-.84-.88-1.6-.64.31-.44-.39-.52-.32-1.07.38-.02.41.36.7.43.34-.14.11-.22.27-.54ZM82.92,137.45c-1.04,0-2.45-.56-3.33-1.08,1.11-.07,2.28.73,3.33,1.08ZM80.24,135.19c.33.17.68.32.96.54-.13.06-.86-.21-.96-.54ZM83.03,140.02c-.28.22-.77.23-1.29.22.22-.28.78-.34,1.29-.22ZM80.24,132.94c-.43.42.17.54.53.75-.8.15-1.43-.78-1.93-1.29.35-.13.93.43,1.4.54ZM79.16,136.05c-.27.19-.88-.19-1.29-.22.32-.25.88.19,1.29.22ZM72.5,134.12c.55-.08,1.7.35,2.25.32-.26.55-1.77-.06-2.25-.32ZM75.73,131.11c.53-.13,1.2.52,1.72.75-.55.15-1.04-.68-1.72-.75ZM77.66,142.28c-.12-.03-.07-.21-.21-.21-.12-.02-.19.02-.22.11-.48-.33,1.02-.32.43.11ZM79.16,142.07c-.13-.28.52-.28,0-.32.33-.37.53.29.86,0-.02.37-.59.2-.86.32ZM80.24,141.74c.31-.36-.24-.33-.64-.53-1.12-.57-2.25-1.59-3.65-1.94,1.02-.06,2.18.68,2.9,1.29.32-.07-.11-.23,0-.43.64.07.64.79,1.29.86.22-.12-.31-.28.11-.43.02-.31-.66.09-.64-.22.22-.28,1.12-.15,1.82-.21.35.12-.29.12-.43.11.11.47.93.2,1.5.43-.13.44-.41.06-.64,0-.23.03.16.29-.11.43.65-.02.68-.06,1.29,0-.28.33.19.6.54.64-.02-.3-.34-.3-.43-.53.25-.21.52-.41,1.08-.32-.06.34.2.33,0,.54-.34.12-.26-.17-.43-.21-.24.06.13.17-.11.32.18.25.82.04,1.18.11-.02.31-.45.19-.75.21.1.19.38.2.53.32-.28.28-.88-.04-.96-.32-.69.27-1.39-.32-2.04-.43-.15.03-.09.27-.11.43.45-.42,1.04.29,1.29.54-.81.42-1.61-.86-2.58-.64ZM80.08,169.26c.04-.58.45.11.59-.29.61.72,1.6,1.02,2.94,1.32-1.16,1.07-2.02-1.08-3.53-1.03ZM83.89,164.71c.06-.32.73-.06,1.03-.15,0,.43-.83.35-1.03.15ZM82.92,142.37c-.05-.41.62-.3.75-.21.04.26-.49,0-.32.38,1.45.77,3.09,1.38,4.41,2.28,2.35.88,5.47,2.46,7.2,3.45-1.22-.43-2.31-.98-3.44-1.49.05.08.11-.06.11.09-.34.02-.26-.76-.43-.76h-.64c-2.28-2.2-5.21-2.3-7.63-3.75ZM86.26,140.13c-.23.32-.57-.14-.97,0,.17-.27.75-.05.97,0ZM86.04,139.6c.14-.42.48-.02.75-.22-.11.22-.41.23-.75.22ZM89.27,140.29c.07-.22.54-.03.77-.09-.22.24-.43.14-.77.09ZM90.14,140.97c.27.24-.47.29-.67.38.05-.31.55-.15.67-.38ZM89.37,141.54c.11-.14.04,0,0,.1-.95.07-.95-.16,0-.1ZM90.66,143.92s.69,0,.64,0h-.64ZM89.48,163.09c.34-.52.65.21.88.29.64.35-.66-.16-.88-.29ZM88.01,163.53c-.48,0-.56.42-1.18.29.43-.74,1.27-.54,1.91-.15-.03.12-.15.15-.15.3-.13-.03-.14.06-.15.14-.18-.04-.15-.29,0-.29-.11-.13-.27-.22-.44-.29ZM88.74,167.35c-1.05-.11-1.16-.33-2.2-.29.36-.7,1.28.05,2.06-.15-.1-.15-.34-.15-.29-.44.48-.25.65.08,1.03.29,1.33-1.33,2.31.2,3.82.44-1.57.53-3.03-1.2-4.41.15ZM91.39,172.49c.77.25,1.5.55,2.2.88-.64-.13-1.94,0-2.2-.88ZM94.03,173.67c.37-.27.56,0,1.17-.14.02.78-.85.28-1.17.14ZM109.77,187.08l-.15.07-.07.25c-.06-.12-.01-.19.07-.25l.03-.09.12.02c.12-.05.27-.1.36-.19l-.1-.06c.16-.02.48-.16.51,0-.28-.12-.33.05-.43.4l.46.17c-.3.8-.4-.15-.81-.31ZM111.52,188.21c-.1.07-.19.03-.28,0h-.15s.15,0,.15,0c.35-.03.19-.66.66-.23-.15.11-.61-.06-.38.22ZM110.7,187.61c-.01-.48.43-.39.61-.34l-.61.34ZM137.63,190.12c.24-.49.63-.91.63-.91v.11c.03-.14.21-.23.44-.33,0,0,0-.02-.01-.03.01,0,.03.01.04.02.25-.1.56-.19.8-.31-.3.27-.44.48-.8.31,0,0-.02,0-.03.01.4.96-.67.59-1.08,1.12ZM138.04,189.08l.27-.43-.27.43ZM139.45,189.82c-.2-.45-.49.08-.66,0-.03-.27.88-.62.76-.52-.54.16.5.41-.1.51ZM142.19,188.9c-.22.16-.4.23-.56.26,0,0,0,.01.01.02-.19.1-.29.09-.37.04-.21.02-.43.07-.72.29l.03-.57c.47-.19.5.17.69.28.12-.01.24-.03.36-.05-.55-.9.23-.34.1-1.09-.05-.03-.07-.07-.03-.13-.03.06-.02.1.03.13.11.08.41.11.49.27.04.39-.54.16-.57.61l.54-.05ZM128.07,187.89c-6.45,0-12.01-2.78-14.57-6.78,5.96-1.33,11.06-4.07,14.55-7.65,3.49,3.6,8.61,6.33,14.59,7.66-2.56,4-8.12,6.77-14.56,6.77ZM142.98,188.35c-.03.07-.13.13-.35.14l.35-.14c.09-.22-.41-.59.21-.6l.29.39-.5.21ZM150.16,187.43c0-.22-.24-.44-.55-.37.31-.19.73-.04.55.37ZM169.17,177.02s-.05,0-.08,0c.03-.02.06-.05.08-.07v.07ZM169.22,177.51l-.05.04.05-.04ZM169.18,177.58s-.04.05-.07.03c0-.04.05-.03.07-.03ZM169.03,177.56h.03s0-.04,0-.04h.07s-.11.09-.11.09v-.04ZM169.24,177.99v-.04s-.02.03-.02.03h-.07l-.02.04-.06-.02h-.02c.05-.05.1-.09.15-.13h0s-.02.04-.02.04c.04-.03.1.04.08.08h-.03ZM169.52,176.8v-.04s-.02.03-.02.03h-.07l-.02.04-.06-.02h-.02c.05-.05.1-.09.15-.14h0s-.02.04-.02.04c.04-.03.09.04.08.08h-.04ZM159.71,144.12c-5.41,5.77-8.05,12.23-7.63,17.35.08,1.01.3,1.97.62,2.86.19-.22.57.07.91-.02-.05-.07-.16-.07-.14-.2.22-.12.3.04.48.13.61-.61,1.06.09,1.76.2-.73.25-1.4-.55-2.03.07-.46-.05-.53-.14-.96-.13.37,1,.89,1.91,1.57,2.72.26.07.53.11.81.13-.01.08-.12.05-.2.07.78.64,1.86.55,2.71,1.09.15.67-.62.41-.68.87.05.03.11-.29.17-.26.07,0,.15-.29.17-.29h-.05c1.27,1.93,2.68,1.39,4.21,1.55-1.51,1.38-3.35,2.73-5.43,3.65.04.4.27.7.66.76.36.62,1.3.87,1.83,1.12-.04.21-.18.11-.33.09.04.14.2.14.06.28.18,0,.14-.11.27,0,.06.12.02.34.14.41-.22.19-.39-.24-.75-.14-.1-1.12-1.67-.77-1.96-1.69-.4.03-.71-.1-1-.22-.14.05-.28.11-.42.16.13.02.27.01.4,0,0,.12.08.14.07.27-.36.09-.6-.03-.84-.13-.93.32-1.89.59-2.88.82.85.08,1.83.16,2.37-.07.02.16.23.13.2.34-.21.09-.35-.09-.34.27-.8-.11-.97.58-2.17.47-.74-.06-1.42.08-2.03-.14-.36-.12-.73-.26-1.1-.38-.15.02-.29.03-.44.05.04.03.06.08.05.13-.19-.14-.28.04-.47-.07,0-.01,0-.02.01-.03-.26.02-.52.03-.78.05-.14.05-.22.36-.25.52-.4.05-.73-.09-1.04-.09h-.14c-.82,0-1.62-.23-2.42-.3-.17.07-.37.03-.52.02.03-.08.1-.17.18-.19-5.91-.56-11.03-2.93-14.28-6.28-3.74,3.86-9.98,6.38-17.04,6.38-6.63,0-12.53-2.24-16.32-5.7,1.89-.21,3.61-.76,5.07-1.69,2.62-1.67,4.02-4.31,4.28-7.45.42-5.12-2.22-11.58-7.63-17.35-1.93-2.06-4.06-3.85-6.27-5.35-.69.13-1.04.61-1.82.65.44.16.85.34,1.15.6-2.31-.54-3.94-1.51-6.23-2.25.93-.06,2.11.63,3.33,1.07.6.22,1.2.38,1.74.57.52-.28,1.03-.56,1.53-.84-.24-.16-.49-.3-.74-.45-.03.13,0,.27.14.4-.48.3-.93-.36-1.4-.43-.35.16.22.26.11.54-.37-.06-.57-.28-.97-.32.27-.44-.27.06-.43-.22.14-.28.22-.34.54-.21-.28-.4-.98-.38-1.07-.97.32,0,.54.31.75.11-.02-.23-.27-.23-.54-.21.07-.09.15-.15.24-.19-.57-.3-1.15-.58-1.73-.84.15.1.3.23.41.27-.43.16-.3.33.11.43-.25.28-.66-.19-.97-.22-.12-.4.46-.36,0-.53.05-.06.12-.08.19-.07-.26-.12-.52-.24-.78-.35.91-.25,1.83-.58,2.76-.93.07-.22.38-.35-.02-.48.21-.2.37.09.6.24,2.09-.84,4.18-1.91,6.23-3.25,1.11-.73,2.17-1.51,3.17-2.32-1.3-.25-2.39-.7-3.63-1.01-.03-.31.76.3,1.06,0-.07.36.41.17.48.39.96.12,1.46.37,2.13.59.65-.53,1.27-1.08,1.87-1.64-.02-.07-.04-.14-.05-.2-.08.05-.16.1-.29.1.03-.6-.66-.49-.77-.96-.34.04-.56.21-.96.19.16-.15.35-.29.67-.29-.16-.39-.52-.57-1.06-.58-.03-.34-.27-.24-.1-.58-.33.04-.12.26-.48.1.25-.47-.09-.33-.38-.87-.27.08-.4.32-.77.29.2-.25.62-.28.87-.48.24.44.76.81.97.77.01.49.78.92,1.25,1.25.35-.07.65-.19,1.06-.19-.17.25-.64.2-.97.29.34.39.76.69,1.17,1.01.62-.59,1.22-1.2,1.78-1.83-.02-.04,0-.05.04-.05.15-.16.29-.33.43-.49-.36-.07-.81-.61-1.03-.96.29.12.5.33.67.58.17-.05.4-.05.48-.19.38.24-.46.37-.1.54,1.07-1.23,2.02-2.51,2.83-3.81,0,0-.02-.01-.03-.01-.21.21-.5.34-.87.38-.08-.5.41-.43.58-.67-.22-.1-.38-.26-.39-.58.27.18.52.37.67.67.07.02.11.01.16,0,.14-.22.26-.44.39-.66-.47-.32-1-.96-1.42-1.37-.11.02-.08.18-.09.29-.1-.03-.04-.65-.39-.87-.13.03-.08.24-.1.39-.3.07-.19-.27-.48-.2.07-.36.33,0,.48-.19,0-.16-.07-.25-.19-.29.2-.13.5.46.77.58.31-.14.54-.36,1.06-.29-.35-.86-1.36-1.08-1.73-1.93.88.37,1.3,1.21,2.02,1.73.42-.24,1.06-.26.97-.58.1.05.28.06.47.02.09-.19.17-.39.25-.58.14.06.28.12.42.18.06-.09.1-.18.11-.29.11.09,0,.22.19.39,1.21-.55,2.26-.85,3.57-1.16-.85.5-2,.7-2.89,1.16.16.14.28.7.42.86,5.61,2.15,12.5,3.8,19.96,3.8h.98c8.28,0,15.87-1.95,21.77-4.54,2.1,5.25,6.49,10.35,12.5,14.3,3.14,2.06,6.41,3.44,9.57,4.32-4.44,1.79-8.93,4.71-12.69,8.72ZM156.66,167.37c0,.36-.39.13-.54.07.17-.13.26,0,.54-.07ZM154.02,162.56c.16-.24.3.1.41.14.29.16-.3-.08-.41-.14ZM153.34,162.76c-.22,0-.26.19-.54.14.2-.34.58-.25.88-.07-.02.05-.07.07-.07.14-.06-.02-.06.02-.07.06-.08-.02-.07-.13,0-.13-.05-.06-.12-.1-.2-.14ZM155.91,167.3c-.3-.06-.89,0-1.02-.4.36.11.7.25,1.02.4ZM167.19,128.34c.1-.3.75-.05,1.06-.13-.31.33-.59.19-1.06.13ZM168.38,129.27c.37.33-.65.39-.93.53.06-.42.76-.22.93-.53ZM167.32,130.06c.16-.18.05,0,0,.13-1.31.1-1.31-.22,0-.13ZM173.02,123.7c-1.35.75-3.39,1.59-4.51,2.52-1.04.15-1.5.88-2.65.93,2.92-1.59,5.67-3.19,8.22-4.24.31.49-.66.57-1.06.79ZM172.09,110.85c-.04-.42,1.04.41,1.46,0-.09.49.57.23.66.53,1.49.18,2.17.6,3.31.93.24-.04.27.12.13.13-.15.02-.24-.03-.27-.13-1.93-.32-3.49-1.01-5.3-1.46ZM174.34,115.75c.34-.34.69-.38,1.19-.26-.23.44-.6.07-1.19.26ZM175.27,122.51c.83-.54,1.53-1.21,2.65-1.46-.54-.57.77-.68,1.06-1.19.35.15-.35.34-.4.53.75.22,1.48-.72,2.39-.79-1.63,1.24-3.64,2.1-5.7,2.91ZM181.34,125.8s.05.02.08.02c.07.04.14.03.21.07-.15.28.32.68.35.95h-.26c-.19-.55-.33-.9-.38-1.04ZM182.32,127.43c-.24-.02-.35.09-.34.32-.04-.12-.08-.23-.11-.35.01-.13-.01-.3.11-.32.16.07.28.18.34.34ZM181.23,119.6c1.5-1.19,3.44-1.95,5.3-2.78-1.44,1.25-3.5,1.88-5.3,2.78ZM189.44,118.53c-.43-.23-.56-.77-1.32-.66.44-.73.85.45,1.59.26-.09.14-.3.14-.26.4Z"/>
    <path class="cls-1" d="M111.96,103.67c-.09-.04-.18-.08-.26-.12.04.14.1.23.26.12Z"/>
    <path class="cls-1" d="M109.78,103.75c.25,0,.53.43.7.49l-.31.31c-.02.45.38-.01.42.44.33-.09.17-.61.37-.69-.03.15.26.6.54.41.31-.83-.6-.04-.44-.94l.29.36c.61-.6-.46-.37-.19-.8-.12-.05-.23-.1-.34-.16.02.05.03.1.02.17-.15-.13-.76-.11-1.07.42Z"/>
    <path class="cls-1" d="M74.97,143.46c-.93,0-1.23-.96-2.15-.64-.42-.75-1.2-1.22-2.03-1.67-.1.56-.18,1.13-.27,1.69.28.02.55.05.69-.03.17.34-.36.12-.7.14-.01.09-.03.18-.04.27.24.08.51.15.63.34-.18.14-.41-.04-.67-.15-.65,4.75-.76,9.57.45,13.2,0,0,.76-7.93,5.18-12.17-.44-.25-.83-.55-1.09-.99Z"/>
    <path class="cls-1" d="M70.78,128.86c-.64-.36-1.28-.79-2.15-.97-.06-.24.21-.15.22-.32-.2-.3-.76-.25-1.07-.43-.13.03-.11.21,0,.22-1.14-.23-2.35-.56-3.62-.88-.01.51-.02,1.02-.02,1.53s0,1.05.02,1.57c0,.2.01.4.02.6.01.32.03.63.04.94.01.26.03.51.04.77.01.25.03.5.05.76.01.19.03.38.05.57.31.1.62.2.95.27.01.46.58.35.64.75-.52-.22-1.05-.46-1.57-.71.02.2.03.4.05.6.03.32.07.64.1.95.02.17.04.34.06.51.04.35.21.69.25,1.04.02.13.18.26.18.39v.03c0,.18.48.38.79.57.25-.84.56-1.88,1.1-3.02-.08-.05-.2-.1-.28-.15.09.04.16.08.24.12.25-.54.54-1.11.87-1.69-.09-.02-.19-.03-.28-.04.1-.02.21-.03.32-.03.77-1.31,1.75-2.67,3-3.94ZM64.88,131.97c.34-.09.33.17.53.21-.08.24-.61.05-.53-.21Z"/>
    <path class="cls-1" d="M170.94,176.45s.05.08.08.11l.82-1.07c-.21.2-.42.4-.63.6,0,.03-.02.04-.04.04-.18.17-.37.34-.56.51,0,.03,0,.06,0,.09-.03,0-.07,0-.08.05h-.02s.03-.08.03-.08c-.02.02-.04.03-.06.05v.05s.08.02.08.02c.03-.02,0-.04.03-.05.02.04-.02.08,0,.12l-.05.07s-.02-.04.01-.06l-.1-.03c0,.11-.06.2-.03.3.03-.01.05-.08.02-.1.04-.01.01-.08.05-.09l.02.05.03-.04h.05s.03-.05.01-.07l.11-.08v.1s.26-.34.26-.34c-.02-.05-.04-.11-.04-.16ZM170.72,176.61l-.02-.03s.07-.02.09.02l-.07.02Z"/>
    <path class="cls-1" d="M169.88,177.42v-.09s0,0,.02,0v-.05c-.07.06-.13.12-.2.18l-.06.08s.02.09-.02.12l.03.05-.04.03c.03.05.07-.01.13-.03h.05s0-.12.03-.16c.02-.03.05-.05.08-.07v-.06s0,0,0,0Z"/>
    <path class="cls-1" d="M169.63,177.51s0,.01,0,.02l.06-.08s-.04.04-.06.06Z"/>
    <polygon class="cls-1" points="169.53 180.54 169.57 180.53 169.56 180.5 169.53 180.54"/>
    <path class="cls-1" d="M170.35,179.67h-.04s.03.02.03.02c-.02-.02.04,0,.01-.02Z"/>
    <polygon class="cls-1" points="169.58 180.46 169.57 180.5 169.66 180.46 169.62 180.44 169.58 180.46"/>
    <polygon class="cls-1" points="169.7 180.48 169.72 180.46 169.71 180.45 169.7 180.48"/>
    <path class="cls-1" d="M170.26,179.35s.03,0,.06-.02l.03-.04-.07-.07s-.04.07-.02.08l.02-.03s.03-.02.03-.01v.02s-.03.04-.06.02v.04Z"/>
    <polygon class="cls-1" points="170.29 179.39 170.28 179.41 170.25 179.41 170.31 179.43 170.29 179.39"/>
    <path class="cls-1" d="M170.68,179.48l.03-.04s-.04-.02-.06,0l.03.03Z"/>
    <path class="cls-1" d="M170.65,179.35h-.01s.01.03.01.03h.09s.02-.05.02-.05c-.04.03-.07,0-.1-.02l-.04.03h.04Z"/>
    <polygon class="cls-1" points="170.64 179.31 170.58 179.3 170.59 179.33 170.64 179.31"/>
    <path class="cls-1" d="M170.58,179.54l.02-.03s0,0,.01,0v.08s.06-.04.03-.07c0,0,.03.03.03,0-.03,0-.02-.04-.05-.06l-.08.02s-.03.03-.02.05l.05.02h.01Z"/>
    <path class="cls-1" d="M173.54,175.62s.07-.02.05-.06c-.02,0-.06.03-.05.06Z"/>
    <path class="cls-1" d="M169.19,177.91l.02-.04h0c-.05.04-.1.08-.15.13h.02s.06.02.06.02l.02-.04h.07l.03-.03v.04s.03,0,.03,0c.01-.04-.04-.11-.08-.08Z"/>
    <path class="cls-1" d="M175.41,174.05l-.04-.05-.04.03s.04.02.06.05l.03-.02Z"/>
    <path class="cls-1" d="M168.83,178.8s.05-.01.07-.03c-.02,0-.08,0-.07.03Z"/>
    <path class="cls-1" d="M173.25,175.89c-.04.05-.16.05-.13.12.04-.04.12-.07.13-.12Z"/>
    <path class="cls-1" d="M172.71,177.45h.06c0-.05.08-.07.07-.11h.04s.03-.05.03-.05c.06,0,.1-.07.11-.11v.04c.06-.05.06-.1.13-.16l.02.04.06-.04-.02-.02.09-.03c-.02-.1.16-.06.17-.17h-.04c.1-.1.29-.2.3-.31-.11.04-.2.2-.31.24-.26.34-.77.61-1.04.94.11-.03.2-.2.33-.21v-.04Z"/>
    <path class="cls-1" d="M168.89,178.14s-.06.05-.08.07c.03,0,.06,0,.09,0v-.07h0Z"/>
    <path class="cls-1" d="M171.63,178.15s.08-.02.13-.06c-.03-.03-.11.01-.13.06Z"/>
    <polygon class="cls-1" points="168.78 178.73 168.75 178.75 168.75 178.79 168.86 178.69 168.79 178.7 168.78 178.73"/>
    <path class="cls-1" d="M169.8,179.78c-.28.37-.55.73-.84,1.09.01,0,.03,0,.04.02l.03-.05-.02-.02h.05l-.04.05h.05s-.02.03-.02.03l.02.02.03-.03v.05s.03,0,.03,0v.08s.11,0,.11,0c0,.04-.05,0-.05.04h-.03s.07.03.11,0c0,.03.04.02.05,0l-.02-.04c.07-.04.12,0,.18-.03-.02,0-.05-.03-.04-.06h-.03s.02-.02.02-.02h-.03c.02-.06.07-.12.12-.15l-.04-.03v-.02c.08-.06.11-.13.15-.19l.16-.04.02.02s.06-.04.08-.07v-.03s.14-.04.14-.04l.02-.04s-.03-.04,0-.05l-.02-.03c.05-.01.01-.08.07-.1-.03-.02,0-.05.03-.08v.03s.03-.07.03-.07h-.02s.03-.1.03-.1c-.02,0-.04-.02-.03-.03l.02.02c0-.05-.29-.01-.3-.01,0-.03-.18-.02-.18-.03v-.04s.32.02.34-.03h.05s-.27-.07-.22-.11l-.17.04v.03l.39-.85h.18s.05.41.04.39l.09.13.05.14s0,0,0-.01h.04s-.06-.04-.08-.02c0,.02.04.05.01.06l-.38-.04s-.36.04-.36.06v-.02s.35-.27.35-.26c-.07,0,.32-.44.31-.44h-.02s-.05.37-.08.35l-.02.11-.06.1s-.05-.02-.07.02l.03.03-.03.04v-.06s-.01.02-.01.02l.06-.08h.02s-.03,0-.03,0l.03-.03h-.01s.06.02.09.02v.04s.04.03.04.03h-.02s-.29.04-.29.04l-.29-.03v.03l.39-.04-.19-.07-.2.02v-.05s.34-.05.36-.06l.19.03.06.02.12-.02s.06.03.05.07l-.46.07-.31.09v.07h.37s.22.07.22.07h.13s.13.08.18.06c0-.02.01-.05.04-.07v-.08s.06-.07.06-.07l.03.02.04-.08-.06-.02s.03-.09.09-.14c.04.03.09.02.13.08-.03.02-.04.06,0,.08.02-.03-.02-.36.01-.39.06,0,.1-.22.15-.22h-.02v.34s-.04.11-.07.13c.03.07.12.13.17.16-.02-.03.02.02.04,0,.02.06.08.05.12.06-.06-.05-.13-.03-.11-.12.02.01.08.03.07-.01.07.04.19-.06.23-.14l-.06-.05c.01-.06.08-.06.11-.02v.06s0-.05.02-.07l.03.02-.03.05.12.02s0,.09.03.11c0-.04-.02-.08,0-.11.05.06,0,.15.09.19-.02-.07-.06-.14-.04-.21.05-.02.06-.07.08-.1-.1-.03-.12-.18-.2-.24l.06-.08-.04-.08.03-.02c-.11-.08-.09-.21-.17-.31.34-.18.69-.38,1.03-.63-.01-.03-.03,0-.05-.02,0-.01.03-.02.02-.03l-.07.1h-.04s.06-.05.06-.05c-.04-.06-.1.07-.13.03.17-.17.42-.4.63-.47-.04.02-.07.05-.05.08.16-.14.35-.28.47-.42l-.04-.02c.8-.72,1.53-1.46,2.29-2.26-.03-.02-.02-.04-.03-.06-.02.06-.1.09-.14.15l-.03-.02c-.05.08-.17.16-.16.24-.04,0-.08.06-.12.09h-.03s-.04.03-.04.03c.02.02.04-.03.06,0-.04.02-.01.06-.04.09l-.03-.03s-.08.07-.13.06l-.02-.04-.14.1s.04.01.02.03c-.06.04-.2.12-.18.2.07-.06.14-.13.2-.14-.05.08-.1.21-.21.21.02.08-.09.12-.15.13,0,.1-.12.18-.22.27v.06s-.05,0-.08,0c-.02.08-.16.18-.23.18,0-.06.11-.12.16-.16l.02.03c.06-.04.02-.09.08-.13-.06,0-.15.08-.2.14-.06-.03-.09.1-.15.08.08-.11.26-.21.27-.32-.05,0-.18.17-.21.13-.01-.02.05-.11.09-.15.05-.05.1-.1.15-.11,0,.02-.06.02-.03.04.08-.03.14-.13.23-.18-.07-.06.06-.13.1-.18.02.01-.01.06.02.05v-.07s.12-.03.14-.08l-.02-.04c.06-.03.06-.12.12-.13l.04.04s.04-.09.06-.13c.02,0,0,.04.03.02l.03-.12.12-.1.07-.1.15-.09v.05s.08,0,.08,0h.05c.08,0,.24-.36.36-.46-.04-.04-.07-.02-.11-.01,0-.02-.04-.07-.05-.1-.09.05-.15.17-.24.17.22-.26.54-.45.71-.73h-.02c.14-.17.31-.27.44-.44v.04c.06-.15.23-.25.34-.39.15-.18.39-.33.47-.53-.27.28-.58.52-.84.83l-.1.13-.09.04c-.16.1-.27.34-.44.4l.16-.19c-.09.07-.23.21-.29.28h.05c-.11.08-.22.2-.33.22-.02-.08.14-.18.16-.26l.02-.21c.21-.27.53,1.21.7-.99h.03c.1,0,.29,0,.35-.15-.39.35-.76.86-1.18,1.23-.59.5-1.1,1.19-1.71,1.68.03-.07.11-.12.1-.18,0,.02-.03.1-.06.07-.03.08-.09.19-.19.26-.02-.04.05-.07.04-.11l-.05.06s-.01-.09-.04-.11c0,.08-.13.15-.12.24l-.04-.03s.03.03.02.05l-.06.02.04.02-.04.1-.04-.02s.06-.06.04-.09c-.05.03-.02.07-.07.09.05.04-.03.11-.07.04h.04s0-.08.03-.1c-.04-.03,0-.06,0-.09-.06.09-.05.23-.19.28v.05s-.03-.01-.03-.01l-.03.04h-.02s-.07.11-.11.08c.07-.11.23-.21.28-.32-.07,0-.15.11-.21.11-.02-.08.13-.14.1-.22-.03.06-.13.14-.19.13-.03.18-.32.33-.46.5l-.05-.02c.08-.05.19-.12.23-.2-.05.01-.13.12-.16.1.1-.06.12-.2.24-.23l-.28-.13c-.05.04,1.4.1-.53.11v-.06c0,.13.09.26-.06.38-.68,1.19-1.25,2.35-2.07,3.48-.06.25-.01.49-.08.74l.12-.53ZM170.35,179.67s-.03,0-.01.02h-.03s.04-.02.04-.02ZM171.85,178.9h-.09.09ZM175.37,174l.04.05-.03.02s-.06-.01-.06-.05l.04-.03ZM173.59,175.57s-.03.06-.05.06c-.01-.03.03-.05.05-.06ZM173.56,175.41s-.05.06-.03.09c-.02-.03,0-.06.03-.09ZM173.25,175.89s-.08.08-.13.12c-.03-.07.08-.07.13-.12ZM173.42,176.76c.1-.04.2-.2.31-.24,0,.11-.2.22-.3.3h.04c-.01.12-.19.08-.17.18l-.09.03.02.02-.06.04-.02-.04c-.07.05-.07.11-.12.16v-.04s-.06.11-.12.11l-.03.07h-.04s-.08.04-.07.09h-.06s0,.04,0,.04c-.12.01-.21.18-.33.21.27-.32.79-.59,1.04-.94ZM171.76,178.09s-.08.03-.13.06c.01-.05.09-.09.13-.06ZM171.59,178.05s0,.09-.04.13c0-.07-.03-.14-.02-.2l.05.07ZM170.68,179.48l-.03-.03s.04,0,.06,0l-.03.04ZM170.76,179.33l-.02.05h-.09s-.01-.02-.01-.02h.01s-.04-.02-.04-.02l.04-.03s.06.05.1.02ZM170.64,179.31l-.05.02v-.03s.05.01.05.01ZM170.55,179.48l.08-.02s.02.06.05.06c0,.02-.03,0-.03,0,.02.02-.03.04-.04.07v-.08s0,.03,0,0l-.02.03h-.01s-.05-.01-.05-.01c0-.02.05-.03.02-.05ZM170.31,179.26s-.02.04-.03.01l-.02.03s0-.06.02-.08l.07.07-.03.04s-.04,0-.06.02v-.04s.03-.02.05-.02v-.02ZM170.28,179.41v-.02s.03.04.03.04l-.06-.02h.04ZM169.53,180.54l.02-.03v.02s-.02.01-.02.01ZM169.57,180.5v-.04s.05-.02.05-.02l.03.02-.08.04ZM169.7,180.48v-.03s.02.02.02.02l-.02.02Z"/>
    <path class="cls-1" d="M169.88,177.42h.01s0-.09,0-.09c-.01,0-.01,0-.02,0v.09Z"/>
    <path class="cls-1" d="M168.88,181.01v-.05s0,0,0,.01v.04Z"/>
    <path class="cls-1" d="M168.92,180.94h0s-.02,0-.03.02l.03-.02Z"/>
    <polygon class="cls-1" points="166.59 182.19 166.61 182.2 166.55 182.25 166.68 182.17 166.66 182.17 166.71 182.14 166.74 182.1 166.59 182.19"/>
    <path class="cls-1" d="M165.93,181.55s-.04.03-.03.03c0,0,.05-.03.03-.03Z"/>
    <polygon class="cls-1" points="166.5 182.28 166.54 182.23 166.49 182.26 166.5 182.28"/>
    <path class="cls-1" d="M166.51,181.04s.05,0,.03-.01h-.03Z"/>
    <path class="cls-1" d="M166.94,181.47s.03.02.05,0c.07-.07-.14-.07-.05,0Z"/>
    <polygon class="cls-1" points="166.35 180.28 166.36 180.31 166.39 180.29 166.35 180.28"/>
    <path class="cls-1" d="M167.08,179.94l.05-.02s-.06,0-.05.02Z"/>
    <polygon class="cls-1" points="167.22 179.84 167.24 179.82 167.21 179.83 167.22 179.84"/>
    <path class="cls-1" d="M168.79,181.28s0-.04.02-.03c-.02-.03.02-.05.01-.07h-.02s-.03.07-.01.11Z"/>
    <path class="cls-1" d="M168.94,180.97h-.04s.04.03.04,0Z"/>
    <path class="cls-1" d="M169.74,181.09s-.02.05,0,.05l.02-.02v-.04s-.03,0-.03,0Z"/>
    <polygon class="cls-1" points="168.55 178.78 168.57 178.77 168.54 178.76 168.55 178.78"/>
    <path class="cls-1" d="M170.14,180.24l.03-.02s.02-.04,0-.05l-.02.06Z"/>
    <polygon class="cls-1" points="170.29 180.09 170.32 180.09 170.29 180.07 170.29 180.09"/>
    <polygon class="cls-1" points="170.17 179.85 170.17 179.87 170.2 179.86 170.2 179.84 170.17 179.85"/>
    <polygon class="cls-1" points="170.41 179.76 170.44 179.75 170.42 179.72 170.41 179.76"/>
    <path class="cls-1" d="M170.72,176.61l.07-.02s-.06-.04-.09-.02l.02.03Z"/>
    <path class="cls-1" d="M170.98,176.61l.04-.05s-.06-.07-.08-.11c0,.05.02.11.04.16Z"/>
    <path class="cls-1" d="M172.73,177.66l-.11.08.03.04c.04-.06.15-.08.16-.15l-.08.06v-.04Z"/>
    <path class="cls-1" d="M172.92,177.56s-.05.02-.03.05c.02-.04.1-.06.1-.1-.03.03-.05,0-.08.02v.03Z"/>
    <path class="cls-1" d="M173.01,177.52c.03-.06.14-.08.15-.15-.05.01-.11.1-.16.09v.06Z"/>
    <path class="cls-1" d="M173.18,177.38l.1-.09s-.13.03-.1.09Z"/>
    <path class="cls-1" d="M172.68,175.7h0s.05-.03.05-.03c-.03-.03-.06,0-.06.03Z"/>
    <path class="cls-1" d="M172.81,175.56s-.04.04-.07.07l.02.02s.07-.07.05-.09Z"/>
    <path class="cls-1" d="M172.91,175.59s-.08.03-.07.06l.07-.06Z"/>
    <path class="cls-1" d="M173.99,176.61s-.09.07-.08.12c.02-.04.11-.07.08-.12Z"/>
    <path class="cls-1" d="M174.35,175.89l.02.02s.09-.06.08-.1l-.03-.02s0,.09-.07.1Z"/>
    <path class="cls-1" d="M174.57,175.68s-.1.06-.09.11c.03-.04.12-.06.09-.11Z"/>
    <path class="cls-1" d="M174.47,175.67l.05-.05v-.03s-.07.05-.05.08Z"/>
    <path class="cls-1" d="M175.06,175.13s.02-.07.06-.09c-.03-.02-.01-.04-.02-.05-.06.04-.07.1-.13.15.03.05.06,0,.09-.01Z"/>
    <path class="cls-1" d="M174.36,174.28s-.03.02-.04.04c.04.05.08-.02.04-.04Z"/>
    <path class="cls-1" d="M174.41,174.28s.04-.04.05-.05c-.02-.03-.05-.04-.07,0l.02.02v.04Z"/>
    <path class="cls-1" d="M175.17,175.03l.02.04s.07-.04.1-.05c-.03-.05-.07,0-.11,0Z"/>
    <path class="cls-1" d="M174.38,174.09l.05-.11h-.03s-.04.07-.02.11Z"/>
    <path class="cls-1" d="M174.61,174.13s-.02-.07-.06-.06c.04.03,0,.06.02.08l.04-.02Z"/>
    <path class="cls-1" d="M175.35,174.91c.07-.06.15-.13.17-.19l-.09.07v-.02s-.08.1-.08.14Z"/>
    <path class="cls-1" d="M174.51,173.97s.07-.06.04-.09c-.02.03-.07.06-.04.09Z"/>
    <path class="cls-1" d="M174.61,173.68s-.03.1.02.1c-.03-.03.02-.06-.02-.1Z"/>
    <path class="cls-1" d="M174.65,173.76l.08-.07s-.1.04-.08.07h0Z"/>
    <path class="cls-1" d="M175.76,174.64h-.02s.02-.03.02-.03l-.03-.03s-.04.08-.06.11h.06s.08-.07.08-.07l-.02-.03-.03.04Z"/>
    <path class="cls-1" d="M175.76,174.59s.05.02.07-.02c0-.04-.07-.02-.07.02Z"/>
    <path class="cls-1" d="M174.73,173.5l.03.07s0-.08-.03-.07Z"/>
    <path class="cls-1" d="M174.9,173.48s-.05.11,0,.12c-.04-.06.09-.11.05-.16l-.05.06-.02-.02Z"/>
    <path class="cls-1" d="M175.91,174.53s-.03-.05.02-.08l-.04-.02v.1Z"/>
    <path class="cls-1" d="M176.57,173.74c-.03.09-.19.16-.21.26l-.02-.02c0,.08-.1.06-.13.12l-.02.1c-.06.1-.27.14-.25.27.44-.38.81-.87,1.21-1.25,0-.01-.02-.02,0-.04.11-.09.25-.24.3-.36-.27.31-.63.57-.82.91l-.07.03Z"/>
    <path class="cls-1" d="M175.68,174.13h0s-.03.02-.04,0h.04Z"/>
    <path class="cls-1" d="M175.68,174.13s.06-.04.1-.02v-.03c-.03-.05-.1,0-.1.05Z"/>
    <path class="cls-1" d="M175.17,173.08l.03.04s.03-.07.04-.1l.02.02.03-.08.02.04.07-.13h.02s-.01-.04-.01-.04c-.14.12-.26.28-.37.41h-.04s-.03.07-.02.12c.05-.07.13-.16.21-.2-.02-.03-.03-.05,0-.07Z"/>
    <path class="cls-1" d="M176.13,173.88l.04-.08s.12-.08.18-.14c.14-.14.22-.29.37-.39-.01-.08.13-.14.13-.22v-.06c0,.11-.18.17-.21.3-.17.07-.32.4-.49.46.06-.05.15-.12.16-.19-.08.06-.13.19-.21.2v.06s.04-.07.06-.03c-.01.03-.05.07-.08.05l-.03-.04c-.08.01-.12.11-.18.18.06.07-.09.12-.11.19h.07c.07-.05.11-.16.17-.21l.12-.07Z"/>
    <path class="cls-1" d="M176.07,174.02c.01.06-.12.12-.12.17.12-.09.27-.21.31-.34-.07.03-.11.17-.19.17Z"/>
    <polygon class="cls-1" points="175.82 173.98 175.79 174.03 175.82 174.06 175.86 174.01 175.82 173.98"/>
    <path class="cls-1" d="M177.08,174.8l-.03-.05c-.06.05-.01.09.03.05Z"/>
    <path class="cls-1" d="M176.54,174.11s.06-.05.03-.07l-.03.07Z"/>
    <path class="cls-1" d="M176.27,173.82l.02.04.16-.15c-.09-.05-.09.12-.18.12Z"/>
    <path class="cls-1" d="M176.64,173.97l.06-.03-.02-.03s-.06.04-.04.06Z"/>
    <path class="cls-1" d="M175.5,172.85s-.02-.06-.06-.1c-.01.05.02.07.04.11h.02Z"/>
    <path class="cls-1" d="M175.95,172.26c-.07.03-.17.09-.19.18-.06.04-.15.03-.17.11v.08s-.06.08-.04.1l.05-.03s0-.09.05-.1l-.03.05s.05-.04.09-.05l-.06-.06.04-.02.03.04.09-.14s-.02.04,0,.06l.14-.23Z"/>
    <path class="cls-1" d="M176.87,173.73s.09-.06.05-.09c-.03.03-.06.06-.05.09Z"/>
    <path class="cls-1" d="M176.01,172.62l.05-.02-.04-.04s-.03.04-.01.06Z"/>
    <path class="cls-1" d="M176.8,173.3s.07-.02.04-.06l-.06.05h.02Z"/>
    <path class="cls-1" d="M176.1,172.49l-.05.06.02.02s.08-.05.03-.07Z"/>
    <path class="cls-1" d="M177.03,172.79c-.05.09-.19.16-.21.26.08-.07.19-.17.21-.26Z"/>
    <path class="cls-1" d="M177.38,173.44c.04.08.11-.05.02-.05l-.02.05Z"/>
    <path class="cls-1" d="M176.92,172.63c-.06.06-.16.12-.17.2.04-.08.15-.12.17-.2Z"/>
    <path class="cls-1" d="M176.76,172.57s-.07.04-.06.08h0s.59-.59.59-.59c-.18.13-.37.35-.54.51Z"/>
    <path class="cls-1" d="M177.11,172.86h.01s.04-.06.04-.06c-.02,0-.06.04-.05.06Z"/>
    <path class="cls-1" d="M177.52,172.76s.06-.04.04-.05c-.03-.02-.06.03-.04.05Z"/>
    <path class="cls-1" d="M169.92,180.42s0,0-.01,0h0s.01,0,.01,0Z"/>
    <path class="cls-1" d="M169.55,180.71l-.04.03s.03-.03.04-.03Z"/>
    <path class="cls-1" d="M170.23,180.09l.02-.03h.04s-.07-.08-.07-.08c.03.04.04.08.02.11Z"/>
    <path class="cls-1" d="M170.13,179.5l.03-.03h.02s.03-.02.01-.03h-.01s-.06.02-.06.02v.04Z"/>
    <path class="cls-1" d="M177.04,172.91s-.09.04-.06.09c.03-.02.09-.06.06-.09Z"/>
    <path class="cls-2" d="M169.89,177.41v.06s.06-.04.04-.09l-.04.03Z"/>
    <path class="cls-2" d="M169.99,177.26s-.01-.03-.02-.04c-.03.02-.05.04-.08.06v.05s.07,0,.1-.07Z"/>
    <path class="cls-2" d="M169.78,180.31c.06-.24.11-.49.17-.74-.05.07-.1.14-.15.2l-.02.53Z"/>
    <path class="cls-2" d="M169.93,176.31v.09s0,0,0,0v.14s.05-.03.09-.04h.05s0-.12.03-.16c.02-.03.05-.05.08-.07l-.02.59-.25.32v.09s.05-.04.07-.06c0,.01,0,.02.02.04-.03.06-.05.08-.1.07v.09s.04-.03.04-.03c.01.04-.01.06-.05.09l-.02.59.47-.61c.25-1.83.3-3.75,0-5.69l-.17,4.34c-.08.07-.16.15-.24.22Z"/>
    <path class="cls-2" d="M169.93,176.31c.08-.07.16-.15.24-.22l.17-4.34c-.06-.39-.11-.77-.19-1.16l-.22,5.72Z"/>
    <path class="cls-2" d="M170.17,176.28s-.06.04-.08.07c-.03.05.02.12-.03.15h-.05s-.06.04-.09.05l-.03.64.25-.32.02-.59Z"/>
    <path class="cls-2" d="M166.8,182.08l-.03.03s.06-.02.03-.03Z"/>
    <path class="cls-2" d="M166.85,182.02l.13-.1s.02-.07.02-.04c.02-.05.11-.1.15-.14l-.02.02.08-.05v-.02s.07-.07.12-.07l.02-.03h.04c.16-.14.36-.24.48-.38h-.02c.03-.06.17-.14.21-.22.08-.03.11-.11.16-.15.06-.06.16-.07.22-.15l-.2.12c.04-.08.19-.12.23-.19-.03-.04-.08.03-.11.04l-.02-.06-.12.09s.02,0,.02,0h-.04s0,.01,0,0l-.06.04c-.08.05-.19.07-.26.16v-.03l-.26.07-.89,1.15.11-.06v-.02ZM166.97,181.89h0s-.05.02-.05.02c-.01-.02.03,0,.04-.02ZM166.9,181.92v.03s-.03,0-.03,0l.03-.02ZM166.88,181.97l-.03.03s.02-.03.03-.03Z"/>
    <path class="cls-2" d="M168.54,181.11l.02-.02h-.03s-.05.02-.03.04h.03s0-.04,0-.04v.02Z"/>
    <path class="cls-2" d="M168.5,180.17l-.38.21v.06h.06s-.08.02-.08.02v.06s-.1.04-.08.08l-.04.03.02.02c.09-.03.18-.08.28-.14l-.05-.1h-.03s.33-.21.33-.21l-.03-.03Z"/>
    <polygon class="cls-2" points="169.01 179.78 168.97 179.78 168.99 179.81 169.01 179.78"/>
    <path class="cls-2" d="M168.78,180.8l-.04.05s.07-.02.04-.05Z"/>
    <path class="cls-2" d="M168.88,180.96s0,0,0,0h0Z"/>
    <path class="cls-2" d="M171.84,175.49l-.82,1.07s.04.05.07.06c.02.02-.03.06.02.08-.02.01-.08-.03-.07.01-.02-.02-.04-.06-.05-.09l-.26.34v.03h.09s-.04.04,0,.06l-.06-.02-.03.04-.03-.02c-.07.06-.03.14-.09.2.06.12.17.09.27.04l.02-.05h.06c.23-.18.31-.38.46-.57.15.03.34-.17.43-.3.12-.06.24-.15.36-.25.39-.68.75-1.36,1.1-2.04-.48.48-.96.96-1.46,1.43ZM170.77,177.25l.04-.05.02.03s.04-.1.08-.05c-.05.02-.09.13-.14.07ZM171.06,176.8l.03-.02v.02s0,.03,0,.03l.02.03s-.02-.03-.04-.05ZM171.33,176.68c0-.07-.03-.14-.02-.2l.05.07s.01.09-.03.13ZM171.9,175.97l.05-.13v.09s-.05.04-.05.04ZM172.32,175.67l.03-.09s0,.07-.03.09ZM172.43,175.49c.05,0,0,.05.04.07l-.04-.03v-.04Z"/>
    <polygon class="cls-2" points="168.71 180.91 168.75 180.88 168.71 180.89 168.71 180.91"/>
    <path class="cls-2" d="M168.9,180.89v.04s.04-.04.06-.05c0,0-.02,0-.03,0l-.03.03Z"/>
    <polygon class="cls-2" points="168.53 181.17 168.56 181.14 168.55 181.12 168.53 181.17"/>
    <path class="cls-2" d="M167.18,181.84s.03-.05.06-.03l.02-.02s.07-.03.07-.06l-.14.09v.02Z"/>
    <path class="cls-2" d="M169.04,180.12c-.08.06-.22.13-.26.21h-.02c-.11.09-.27.16-.37.26.05-.02.1-.08.16-.09.04-.09.16-.09.23-.13l.07-.06c.09-.07.19-.13.23-.2l-.17.13s.12-.09.13-.12Z"/>
    <path class="cls-2" d="M168.81,180.79c0,.06.07,0,.11.01v-.05s-.11.04-.11.04Z"/>
    <polygon class="cls-2" points="168.66 180.96 168.67 180.92 168.65 180.95 168.66 180.96"/>
    <path class="cls-2" d="M166.71,182.14h0s.01,0,0,0h0Z"/>
    <path class="cls-2" d="M173.89,172.84l-2.05,2.65c.49-.47.98-.94,1.46-1.43.2-.41.4-.82.59-1.23Z"/>
    <path class="cls-2" d="M169.86,178.06l-2.23,2.89.26-.07v.03c.07-.08.18-.1.26-.16l.06-.04s0,0,0,0h.04s-.01-.02-.02-.01l.12-.09.02.06s.08-.08.11-.04c-.04.07-.19.11-.23.19l.2-.12c-.06.08-.15.09-.22.15-.06.04-.08.12-.16.15-.04.08-.18.15-.21.22h.02c-.12.13-.32.23-.48.36h-.04s-.02.04-.02.04c-.06,0-.09.07-.13.07v.02s-.07.05-.07.05l.02-.02s-.13.09-.15.14c0-.03-.01.02-.02.04l-.13.1v.02s-.11.06-.11.06l-.03.04h0s0,0,0,.01h0s-.01,0,0,.01c.14-.09.33-.21.44-.31l.02.02c.13-.08.33-.2.48-.26,0,.04-.03.02-.05.03l-.27.18.03.02h-.04s.03.02.03.02l-.02.03s.07-.04.05-.05l.11-.06v.03l.03-.04v.02s.11-.11.11-.11l.07-.02v.02s0-.02,0-.02c.07-.04.14-.12.21-.13l-.05.05.13-.08v-.03s0-.01,0-.01l.04-.03-.02.05s.09-.03.07-.07l-.03.03c.01-.06.07-.06.13-.11v.02s.09-.06.09-.06v.02s.09-.04.09-.04l-.02.02.22-.08v-.03s.03.02.03.02c.01-.06.12-.15.18-.17v.03s.01-.03.01-.03v.02s.07-.05.07-.05h0s0,0,0,0h0s0,0,0,0c0,0,.02-.02.03-.03v-.04s.02-.03.02-.03c0,0,.02,0,.03,0,.29-.36.57-.72.84-1.09l.07-1.73ZM166.76,182.11l.03-.03s-.02.03-.03.03ZM167.25,181.78l-.02.02s-.03.03-.06.03v-.02s.15-.09.15-.09c0,.03-.05.04-.07.06ZM169.01,179.78l-.02.03-.02-.03h.04ZM168.2,180.42h.03s.05.09.05.09c-.1.06-.19.11-.28.14l-.02-.02.04-.03s.05-.09.07-.08v-.06s.09-.03.09-.03h-.06s0-.05,0-.05l.38-.21.03.03-.33.22ZM168.5,181.12s.03-.03.03-.05h.03s-.02.04-.02.04v-.02s-.01.02-.01.02h-.03ZM168.53,181.17l.02-.04.02.02-.04.03ZM168.66,180.96h0s.02-.04.02-.04v.04ZM168.71,180.91v-.02s.03,0,.03,0l-.03.03ZM168.74,180.85l.04-.05s-.02.05-.04.05ZM168.81,180.79l.1-.04v.05s-.1.05-.1-.01ZM168.86,180.31l-.07.06c-.07.04-.2.04-.23.13-.06,0-.11.07-.16.09.1-.1.26-.17.37-.26h.02c.04-.08.18-.15.26-.21-.02.03-.1.08-.13.12l.17-.13c-.03.07-.14.13-.23.2Z"/>
    <path class="cls-2" d="M166.84,182l.03-.03s-.05.01-.03.03Z"/>
    <polygon class="cls-2" points="166.9 181.92 166.87 181.95 166.88 181.95 166.9 181.92"/>
    <path class="cls-2" d="M166.97,182.04l.13-.11c-.05,0-.09.06-.12.06l-.02.05Z"/>
    <path class="cls-2" d="M166.97,181.89s-.05,0-.04.02h.05s0-.02,0-.02Z"/>
    <path class="cls-2" d="M167.67,181.69l-.04.03s.06,0,.04-.03Z"/>
    <path class="cls-2" d="M170.83,177.23l-.02-.03-.04.05c.05.06.09-.05.14-.07-.04-.05-.07.01-.08.05Z"/>
    <path class="cls-2" d="M171.1,176.8v-.02s-.04.02-.04.02c.03.02,0,.06.04.05l-.02-.03.02-.03Z"/>
    <path class="cls-2" d="M171.03,176.7s.05,0,.07-.01c-.04-.02,0-.05-.02-.08-.03,0-.05-.03-.07-.06l-.04.05s.03.07.05.09Z"/>
    <path class="cls-2" d="M171.59,178.05l-.05-.07c-.01.06.02.13.02.2.05-.04,0-.09.04-.13Z"/>
    <polygon class="cls-2" points="171.9 175.97 171.96 175.93 171.95 175.84 171.9 175.97"/>
    <path class="cls-2" d="M172.32,175.67s.07-.05.03-.09l-.03.09Z"/>
    <path class="cls-2" d="M172.43,175.49v.04s.04.03.04.03c-.03-.02.01-.08-.04-.07Z"/>
    <path class="cls-2" d="M169.8,179.78c.05-.07.1-.14.15-.2.16-.7.29-1.41.39-2.14l-.47.61-.07,1.73Z"/>
    <polygon class="cls-1" points="129.63 91.26 129.57 91.24 129.58 91.31 129.63 91.26"/>
    <path class="cls-1" d="M124.21,109.24c.12-.78.54-.07.84-.11l.21-.57c-.2-.48-.92-.41-1.49-.57l.34.26c-.13.37.16.65.1,1Z"/>
    <polygon class="cls-1" points="130.01 109.96 129.52 109.72 129.63 109.91 130.01 109.96"/>
    <path class="cls-1" d="M139.65,112.73c-.04-.1-.13-.14-.25-.16.02.16.08.27.25.16Z"/>
    <polygon class="cls-1" points="137.45 112.07 137.46 112.07 137.42 112 137.45 112.07"/>
    <path class="cls-1" d="M123.18,108.95h-.21c.05.02.12.02.21,0h0Z"/>
    <path class="cls-1" d="M123.11,108.02c.39.63-.15.23.07.92l.65-.07c-.48-.03-.32-1.17-.72-.85Z"/>
    <path class="cls-1" d="M103.55,99.93s0,0,.02,0c-.11-.09-.1-.07-.02,0Z"/>
    <path class="cls-1" d="M87.76,135.09c-.45-.25-.57-.38-.32-.86-.15.04-.26-.01-.37-.08-.19.08-.39.16-.58.24,0,.02-.02.03-.02.05.53.05.89.82,1.29.65Z"/>
    <path class="cls-1" d="M88.31,139.42s.01,0,.02,0c0,0,0,0,0,0,0,0,0,0-.01,0Z"/>
    <path class="cls-1" d="M113.98,154.45s.04.05.06.08c.01,0,.02,0,.03,0l-.09-.07Z"/>
    <path class="cls-1" d="M88.72,137.66c0,.06,0,.14-.01.21.13.08.27.17.4.25.02-.09.07-.17.14-.24-.14-.11-.39-.11-.54-.22Z"/>
    <path class="cls-1" d="M87.73,137.4c.06-.02.14,0,.23,0,.14.08.27.17.41.25,0,0,.03,0,.04.01-.18-.59-1.28-1.31-1.9-1.05.41.21.82.42,1.23.65,0,.04,0,.08,0,.13Z"/>
    <path class="cls-1" d="M84.51,135.66c.09.04.17.08.26.12-.09-.06-.18-.11-.26-.12Z"/>
    <path class="cls-1" d="M87.54,134.55c.03.4.46.4.64.64.06-.49-.24-.61-.64-.64Z"/>
  </g>
</svg>