<?xml version="1.0" encoding="UTF-8"?>
<svg id="Layer_1" data-name="Layer 1" xmlns="http://www.w3.org/2000/svg" viewBox="0 0 1133.86 340.16">
  <defs>
    <style>
      .cls-1 {
        fill: #8f53f0;
        stroke-width: 0px;
      }
    </style>
  </defs>
  <rect class="cls-1" x="804.38" y="84.94" width="28.77" height="168.44"/>
  <path class="cls-1" d="m1043.05,230.32c-4.8,0-7.31-2.97-7.31-9.59v-41.79c0-28.09-19.87-45.9-51.16-45.9s-48.87,15.99-51.61,41.34l-.44,4.2c5.92-1.22,14.97-2.82,26.29-4,.66-.05,1.33-.13,2.02-.2.91-12.1,10.73-18.96,23.75-18.96,13.93,0,22.38,7.31,22.38,15.99,0,5.25-3.2,8.45-9.59,9.36l-23.75,3.2c-26.26,3.43-41.34,16.21-41.34,37s17.36,34.26,41.34,34.26c17.58,0,31.97-6.85,37.23-17.36,1.37,11.19,10.28,16.9,22.38,16.9,6.85,0,13.7-1.37,13.7-1.37v-23.52s-2.28.46-3.88.46Zm-35.4-28.09c0,17.81-10.73,31.06-29.23,31.06-10.51,0-17.36-5.71-17.36-13.7,0-8.68,5.71-14.16,17.36-15.99l29.23-4.8v3.43Z"/>
  <path class="cls-1" d="m893.33,134.89v-34.93h-28.77v36.45c-12.88-.52-20.09-1.52-20.09-1.52v23.06s7.21,1,20.09,1.52v56.47c0,26.49,17.35,39.27,41.78,39.27,6.39,0,11.87-.91,14.61-1.6v-24.89c-2.28.68-6.85,1.6-11.19,1.6-9.59,0-16.44-6.16-16.44-17.35v-53.39c8.34-.25,17.59-.75,27.63-1.64v-23.06c-10.04.89-19.28,1.39-27.63,1.64v-1.64Z"/>
  <path class="cls-1" d="m730.41,133.06c-35.16,0-60.51,25.8-60.51,60.96s25.34,61.19,60.51,61.19,60.51-25.8,60.51-61.19-25.57-60.96-60.51-60.96Zm0,97.27c-18.95,0-31.05-14.84-31.05-36.3s12.1-36.08,31.05-36.08,31.28,14.61,31.28,36.08-12.79,36.3-31.28,36.3Z"/>
  <path class="cls-1" d="m483.57,84.94c-34.63,65.21-55.84,134.42-64.95,168.55h32.05c2.06-9.51,6.78-27.03,10.23-38.32h75.44c3.45,11.29,8.18,28.82,10.23,38.32h32.05c-9.11-34.14-30.31-103.34-64.95-168.55h-30.11Zm-14.5,105.02c8.42-24.48,19.25-51.81,29.55-70.79,10.3,18.98,21.13,46.31,29.55,70.79h-59.1Z"/>
  <path class="cls-1" d="m646.47,135h-4.6c-11.39,29.66-20.16,57.95-26.58,81.28-6.41-23.33-15.19-51.63-26.58-81.28h-30.23c14.99,35.66,31.91,80.92,41.88,118.17l.12.33h29.6l.12-.33c9.97-37.25,26.9-82.51,41.88-118.17h-25.63Z"/>
  <g>
    <path class="cls-1" d="m304.73,84.94h-38.43c11.1,10.4,18.12,25.45,22.55,39.97,8.8,28.83,8.8,59.77,0,88.61-4.43,14.52-11.45,29.57-22.55,39.97h38.43c17.18-22,27.87-53.15,27.85-84.27,0-31.11-10.69-62.27-27.85-84.27h0Z"/>
    <path class="cls-1" d="m366.53,169.22c0-16.83-8.04-63.36-57.73-84.28h47.65s42.92,28.26,42.92,84.28-42.92,84.28-42.92,84.28h-47.65c49.69-20.92,57.73-67.45,57.73-84.28Z"/>
    <path class="cls-1" d="m181.56,84.94h38.43c-11.1,10.4-18.12,25.45-22.55,39.97-8.8,28.83-8.8,59.77,0,88.61,4.43,14.52,11.45,29.57,22.55,39.97h-38.43c-17.18-22-27.87-53.15-27.85-84.27,0-31.11,10.69-62.27,27.85-84.27h0Z"/>
    <path class="cls-1" d="m223.9,84.94h38.5v168.55h-38.5V84.94Z"/>
    <path class="cls-1" d="m119.76,169.22c0-16.83,8.04-63.36,57.73-84.28h-47.65s-42.92,28.26-42.92,84.28c0,56.01,42.92,84.28,42.92,84.28h47.65c-49.69-20.92-57.73-67.45-57.73-84.28Z"/>
  </g>
</svg>